<svg xmlns="http://www.w3.org/2000/svg" xmlns:xlink="http://www.w3.org/1999/xlink" width="339.408" height="277.712" viewBox="0 0 254.556 208.284"><path stroke-width=".199" stroke-miterlimit="10" fill="none" stroke="#929292" d="M65.468 189.655v-4.252m104.61 4.252v-4.252m44.833 4.252v-4.252M33.453 44.065h4.252m-4.252 107.598h4.252"/><path stroke-width=".399" stroke-miterlimit="10" fill="none" stroke="#000" d="M25.616 187.529h212.21"/><path d="M239.818 187.529l-3.188-1.594 1.195 1.594-1.195 1.594"/><path stroke-width=".399" stroke-miterlimit="10" fill="none" stroke="#000" d="M35.579 197.492V18.162"/><path d="M35.579 16.17l-1.594 3.187 1.594-1.195 1.594 1.195"/><symbol id="a"><path d="M.226.679l.003.015c0 .01-.01.01-.012.01A1.6 1.6 0 01.162.699L.112.695C.087.693.08.692.08.674c0-.01.008-.01.022-.01.049 0 .05-.009.05-.019A.065.065 0 00.149.628L.004.049C0 .034 0 .032 0 .026 0 .004.017 0 .027 0c.017 0 .03.013.035.024l.045.181.016.065c.011.042.011.043.03.072.019.029.064.089.141.089.04 0 .054-.03.054-.07A.9.9 0 00.287.136C.278.112.273.099.273.081.273.036.304 0 .352 0 .445 0 .48.147.48.153.48.158.476.162.47.162.461.162.46.159.455.142.432.062.395.02.355.02.345.02.329.021.329.053c0 .026.012.058.016.069.018.048.063.166.063.224 0 .06-.035.105-.111.105A.185.185 0 01.149.372l.077.307z"/></symbol><use xlink:href="#a" transform="matrix(11.9552 0 0 -11.9552 52.032 202.178)"/><symbol id="b"><path d="M.447.63c.009.011.009.013.009.035H.202C.177.665.146.666.121.668.069.672.068.681.065.697H.034L0 .486h.031C.033.501.044.57.058.578a.657.657 0 00.101.005h.212L.268.445A.675.675 0 01.13.056C.13.046.13 0 .177 0s.047.045.047.057v.048c0 .144.024.262.073.327l.15.198z"/></symbol><use xlink:href="#b" transform="matrix(7.9701 0 0 -7.9701 58.583 204.018)"/><symbol id="c"><path d="M.097.576a.049.049 0 01-.048.048A.048.048 0 010 .576a.048.048 0 11.097 0M.08.203C.08.168.08.097.019.022.013.014.013.012.013.01A.01.01 0 01.023 0C.03 0 .1.074.1.191.1.228.097.29.048.29A.047.047 0 010 .242C0 .215.019.193.049.193c.019 0 .026.006.031.01z"/></symbol><use xlink:href="#c" transform="matrix(11.9552 0 0 -11.9552 63.885 204.365)"/><use xlink:href="#a" transform="matrix(11.9552 0 0 -11.9552 68.747 202.178)"/><symbol id="d"><path d="M.288.382c.056.027.124.077.124.155 0 .095-.097.149-.19.149C.116.686.03.613.03.519a.15.15 0 01.038-.1C.085.398.089.396.151.357.027.302 0 .229 0 .173 0 .063.111 0 .22 0c.123 0 .222.083.222.189a.179.179 0 01-.05.122C.375.327.374.328.288.382M.133.476C.104.493.08.522.08.557.08.62.149.66.22.66.298.66.362.607.362.537.362.479.317.43.258.401L.133.476M.182.339A9.7 9.7 0 00.317.256C.333.247.385.215.385.155.385.078.304.03.222.03.133.03.057.091.057.173c0 .075.056.134.125.166z"/></symbol><use xlink:href="#d" transform="matrix(7.9701 0 0 -7.9701 75.179 204.018)"/><use xlink:href="#a" transform="matrix(11.9552 0 0 -11.9552 164.999 202.178)"/><symbol id="e"><path d="M.087.583A.36.36 0 01.182.569c.125 0 .201.088.201.103 0 .011-.007.014-.012.014-.002 0-.004 0-.013-.005a.382.382 0 00-.278 0C.07.686.068.686.067.686.054.686.054.675.054.657V.364c0-.018 0-.03.016-.03.008 0 .011.004.016.012.012.015.05.066.135.066.056 0 .083-.046.092-.065A.293.293 0 00.332.226.25.25 0 00.303.091.134.134 0 00.191.03a.162.162 0 00-.152.106l.01-.001c.028 0 .05.018.05.049 0 .037-.029.05-.049.05C.032.234 0 .224 0 .181 0 .091.078 0 .193 0c.125 0 .231.097.231.221C.424.337.34.44.222.44A.198.198 0 01.087.39v.193z"/></symbol><use xlink:href="#e" transform="matrix(7.9701 0 0 -7.9701 171.501 204.018)"/><use xlink:href="#a" transform="matrix(11.9552 0 0 -11.9552 209.83 202.178)"/><symbol id="f"><path d="M.094.352c0 .083.007.156.043.217.03.05.081.091.144.091C.301.66.347.657.37.622.325.62.321.586.321.575c0-.03.023-.047.047-.047.018 0 .047.011.047.049C.415.637.37.686.28.686.141.686 0 .554 0 .338 0 .067.126 0 .223 0c.048 0 .1.013.145.056.04.039.074.081.074.168a.215.215 0 01-.21.223C.16.447.117.401.094.352M.223.03a.116.116 0 00-.101.065.365.365 0 00-.025.151c0 .099.054.173.131.173.05 0 .08-.026.099-.061C.348.321.348.276.348.225c0-.051 0-.095-.02-.131C.302.048.267.03.223.03z"/></symbol><use xlink:href="#f" transform="matrix(7.9701 0 0 -7.9701 216.262 204.018)"/><symbol id="g"><path d="M.249.318h.168c.138 0 .276.102.276.216 0 .078-.066.149-.192.149H.192c-.019 0-.028 0-.028-.019 0-.01.009-.01.024-.01.061 0 .061-.008.061-.019 0-.002 0-.008-.004-.023L.11.074C.101.039.099.029.029.029.01.029 0 .029 0 .011 0 0 .009 0 .015 0l.058.002H.19L.249 0c.008 0 .019 0 .019.019 0 .01-.009.01-.024.01-.06 0-.061.007-.061.017l.002.017.064.255m.072.297C.33.652.334.654.373.654h.099C.547.654.609.63.609.555A.261.261 0 00.55.398C.533.38.485.342.394.342H.253l.068.273z"/></symbol><use xlink:href="#g" transform="matrix(11.9552 0 0 -11.9552 4.464 47.255)"/><symbol id="h"><path d="M.333.407A.044.044 0 01.301.363C.301.336.32.316.348.316c.026 0 .047.018.047.048 0 .062-.068.092-.162.092A.23.23 0 010 .226C0 .099.104 0 .23 0a.17.17 0 01.176.13C.406.142.393.142.39.142.383.142.378.141.375.131a.136.136 0 00-.135-.1C.178.031.089.079.089.227c0 .144.074.198.147.198.009 0 .062 0 .097-.018z"/></symbol><symbol id="i"><path d="M.47.223a.235.235 0 01-.47 0A.23.23 0 01.235 0C.364 0 .47.098.47.223M.235.031a.136.136 0 00-.118.061.263.263 0 00-.028.14c0 .038 0 .098.031.141a.14.14 0 00.115.055.14.14 0 00.118-.06.251.251 0 00.028-.136C.381.186.379.131.351.089A.137.137 0 00.235.031z"/></symbol><symbol id="j"><path d="M.445.303c0 .084-.038.138-.143.138A.173.173 0 01.146.345H.145v.096L0 .43V.397C.068.397.076.39.076.341V.078C.076.033.064.033 0 .033V0c.043.003.087.003.114.003.029 0 .071 0 .114-.003v.033c-.064 0-.076 0-.076.045v.181c0 .105.08.154.141.154C.354.413.369.37.369.307V.078C.369.033.357.033.293.033V0C.336.003.38.003.407.003.436.003.478.003.521 0v.033c-.064 0-.076 0-.076.045v.225z"/></symbol><symbol id="k"><path d="M.294.693V.66C.362.66.37.653.37.604V.393a.179.179 0 01-.134.058A.232.232 0 010 .225C0 .102.1 0 .226 0c.059 0 .108.028.141.063V0l.152.01v.033C.451.043.443.05.443.099v.605L.294.693M.367.134c0-.018 0-.022-.015-.042A.15.15 0 00.231.028a.13.13 0 00-.11.061.233.233 0 00-.032.135c0 .058.009.099.032.134a.145.145 0 00.12.065.144.144 0 00.126-.076V.134z"/></symbol><use xlink:href="#h" transform="matrix(7.9701 0 0 -7.9701 11.726 49.128)"/><use xlink:href="#i" transform="matrix(7.9701 0 0 -7.9701 15.448 49.128)"/><use xlink:href="#j" transform="matrix(7.9701 0 0 -7.9701 19.768 49.048)"/><use xlink:href="#k" transform="matrix(7.9701 0 0 -7.9701 24.422 49.128)"/><use xlink:href="#g" transform="matrix(11.9552 0 0 -11.9552 5.169 154.077)"/><symbol id="l"><path d="M.383.238c.022 0 .028 0 .028.023 0 .089-.049.195-.19.195A.224.224 0 010 .229C0 .1.108 0 .234 0c.127 0 .177.107.177.13 0 .004-.003.014-.016.014C.384.144.382.137.38.131A.146.146 0 00.119.098c-.03.046-.03.11-.03.14h.294M.09.264c.009.14.094.164.131.164.117 0 .121-.141.122-.164H.09z"/></symbol><symbol id="m"><path d="M.421.338c.024.056.058.069.095.07v.033C.481.438.479.438.438.438c-.009 0-.056 0-.087.003V.408C.386.406.395.384.395.367A.05.05 0 00.389.343L.281.091.163.362C.157.375.157.381.157.383c0 .025.036.025.053.025v.033C.167.438.12.438.101.438.08.438.032.438 0 .441V.408c.061 0 .066-.006.081-.04l.15-.346C.238.007.244 0 .258 0s.021.008.026.02l.137.318z"/></symbol><symbol id="n"><path d="M.376.308C.376.406.281.456.19.456.107.456.033.424.033.358.033.328.054.31.08.31c.028 0 .047.02.047.047A.045.045 0 01.09.403c.037.025.091.025.098.025C.244.428.3.389.3.307V.276C.242.273.175.27.105.241.017.203 0 .145 0 .112 0 .026.101 0 .17 0c.073 0 .118.041.14.081C.315.043.341.005.385.005.395.005.48.009.48.1v.055H.449V.1C.449.059.434.043.413.043.376.043.376.089.376.1v.208M.3.151C.3.054.218.028.178.028.126.028.082.063.082.111.082.177.144.245.3.25V.151z"/></symbol><symbol id="o"><path d="M.228.033c-.064 0-.076 0-.076.045v.165a.171.171 0 01.13-.059c.127 0 .237.098.237.226a.224.224 0 01-.222.225.202.202 0 01-.148-.062v.062L0 .624V.591C.071.591.076.585.076.543V.078C.076.033.064.033 0 .033V0c.043.003.087.003.114.003.029 0 .071 0 .114-.003v.033M.152.527c.023.04.073.077.136.077C.365.604.43.519.43.41.43.295.358.212.277.212a.133.133 0 00-.113.065C.152.294.152.295.152.314v.213z"/></symbol><use xlink:href="#l" transform="matrix(7.9701 0 0 -7.9701 12.392 155.95)"/><use xlink:href="#m" transform="matrix(7.9701 0 0 -7.9701 16.09 155.95)"/><use xlink:href="#n" transform="matrix(7.9701 0 0 -7.9701 20.267 155.95)"/><use xlink:href="#o" transform="matrix(7.9701 0 0 -7.9701 24.427 157.416)"/><clipPath id="p"><path transform="matrix(1 0 0 -1 35.579 187.529)" d="M0 0h194.276v161.397H0z"/></clipPath><g clip-path="url(#p)"><clipPath id="q"><path transform="matrix(1 0 0 -1 35.579 187.529)" d="M134.499 35.866l.453 1.087.452 1.087.453 1.086.453 1.087.453 1.087.453 1.087.453 1.087.453 1.087.452 1.087.453 1.086.453 1.087.453 1.087.453 1.087.453 1.087.453 1.087.452 1.086.453 1.087.453 1.087.453 1.087.453 1.087.453 1.087.453 1.087.452 1.086.453 1.087.453 1.087.453 1.087.453 1.087.453 1.087.452 1.087.453 1.086.453 1.087.453 1.087.453 1.087.453 1.087.453 1.086.452 1.087.453 1.087.453 1.087.453 1.087.453 1.087.453 1.086.453 1.087.452 1.087.453 1.087.453 1.087.453 1.087.453 1.087.453 1.086.453 1.087.452 1.087.453 1.087.453 1.087.453 1.087.453 1.086.453 1.087.453 1.087.452 1.087.453 1.087.453 1.087.453 1.087.453 1.086.453 1.087.453 1.087.452 1.087.453 1.087.453 1.087.453 1.086.453 1.087.453 1.087.453 1.087.452 1.087.453 1.087.453 1.086.453 1.087.453 1.087.453 1.087.453 1.087.452 1.087.453 1.086.453 1.087.453 1.087.453 1.087.453 1.087.452 1.087.453 1.087.453 1.086.453 1.087.453 1.087.453 1.087.453 1.087.452 1.087.453 1.086.453 1.087.453 1.087.453 1.087.453 1.087.453 1.087.452 1.086.453 1.087V0H134.5z"/></clipPath><g clip-path="url(#q)"><symbol id="s"><path stroke-width=".399" stroke-miterlimit="10" fill="none" stroke="#ff8000" d="M0 208.284l9.066-9.066"/></symbol><pattern id="t" patternUnits="userSpaceOnUse" patternContentUnits="userSpaceOnUse" x="0" y="0" width="8.966" height="8.966"><clipPath id="r"><path d="M0 0h9.963v9.963H0z"/></clipPath><g clip-path="url(#r)"><g transform="matrix(1 0 0 -1 0 208.284)"><use xlink:href="#s"/><use y="-8.966" xlink:href="#s"/><use x="-8.966" xlink:href="#s"/><use x="-8.966" y="-8.966" xlink:href="#s"/></g></g></pattern><path transform="matrix(1 0 0 -1 0 208.284)" fill="url(#t)" d="M170.078 20.755h44.833v143.463h-44.833z"/></g><clipPath id="u"><path transform="matrix(1 0 0 -1 35.579 187.529)" d="M29.889 35.866H134.494V0H29.89z"/></clipPath><g clip-path="url(#u)"><symbol id="w"><path stroke-width=".399" stroke-miterlimit="10" fill="none" stroke="#0f0" d="M0 208.284l9.066-9.066"/></symbol><pattern id="x" patternUnits="userSpaceOnUse" patternContentUnits="userSpaceOnUse" x="0" y="0" width="8.966" height="8.966"><clipPath id="v"><path d="M0 0h9.963v9.963H0z"/></clipPath><g clip-path="url(#v)"><g transform="matrix(1 0 0 -1 0 208.284)"><use xlink:href="#w"/><use y="-8.966" xlink:href="#w"/><use x="-8.966" xlink:href="#w"/><use x="-8.966" y="-8.966" xlink:href="#w"/></g></g></pattern><path transform="matrix(1 0 0 -1 0 208.284)" fill="url(#x)" d="M65.468 20.755h104.606v35.866H65.468z"/></g><path stroke-width=".797" stroke-miterlimit="10" fill="none" stroke="#00f" d="M65.468 151.663h104.61"/><path stroke-width=".638" stroke-linecap="round" stroke-linejoin="round" fill="none" stroke="#00f" d="M115.511 149.59c.13.778 1.554 1.943 1.943 2.073-.389.13-1.813 1.295-1.943 2.072"/><path stroke-width=".797" stroke-miterlimit="10" fill="none" stroke="#00f" d="M170.078 151.663L214.91 44.065"/><path stroke-width=".63795534" stroke-linecap="round" stroke-linejoin="round" fill="none" stroke="#00f" d="M189.71 99.158c.766.18 2.39-.687 2.66-.996-.03.409.497 2.172 1.165 2.59"/><path stroke-width=".797" stroke-miterlimit="10" fill="none" stroke="#00f" d="M214.91 44.065H65.469"/><path stroke-width=".638" stroke-linecap="round" stroke-linejoin="round" fill="none" stroke="#00f" d="M142.45 46.137c-.129-.777-1.553-1.943-1.942-2.072.388-.13 1.813-1.295 1.943-2.072"/><path stroke-width=".797" stroke-miterlimit="10" fill="none" stroke="#00f" d="M65.468 44.065v107.598"/><path stroke-width=".638" stroke-linecap="round" stroke-linejoin="round" fill="none" stroke="#00f" d="M67.54 95.602c-.777.13-1.943 1.555-2.072 1.943-.13-.388-1.296-1.813-2.073-1.943"/><path stroke-width=".399" stroke-dasharray="2.98883,2.98883" stroke-miterlimit="10" fill="none" stroke="#000" d="M35.579 151.663h29.889M35.579 44.065h29.889M65.468 187.529v-35.866M170.078 187.529v-35.866M214.91 187.529V44.065"/><symbol id="y"><path d="M.257.382C.307.409.38.455.38.539.38.626.296.686.204.686.105.686.027.613.027.522c0-.034.01-.068.038-.102A.364.364 0 01.147.357C.05.312 0 .245 0 .172 0 .066.101 0 .203 0c.111 0 .204.082.204.187 0 .102-.072.147-.15.195m-.136.09C.108.481.068.507.068.556c0 .065.068.106.135.106C.275.662.339.61.339.538.339.477.295.428.237.396L.121.472M.168.343L.289.264C.315.247.361.216.361.155.361.079.284.027.204.027.119.027.046.089.046.172c0 .078.057.141.122.171z"/></symbol><use xlink:href="#y" transform="matrix(11.9552 0 0 -11.9552 57.053 148.594)"/><path d="M66.877 151.663a1.409 1.409 0 10-2.818 0 1.409 1.409 0 002.818 0zm-1.41 0"/><symbol id="z"><path d="M.421.642v.023H.18C.059.665.057.678.053.697H.031L0 .497h.022c.003.018.012.08.025.091.008.006.083.006.097.006h.212L.25.442A.752.752 0 01.122.051C.122.04.122 0 .163 0c.042 0 .042.039.042.052v.05c0 .149.024.265.071.332l.145.208z"/></symbol><use xlink:href="#z" transform="matrix(11.9552 0 0 -11.9552 57.209 40.997)"/><path d="M66.877 44.065a1.409 1.409 0 10-2.818 0 1.409 1.409 0 002.818 0zm-1.41 0"/><symbol id="A"><path d="M.082.369c0 .253.123.293.177.293C.295.662.331.651.35.621.338.621.3.621.3.58A.04.04 0 01.341.539c.025 0 .042.015.042.044 0 .052-.038.103-.125.103C.132.686 0 .557 0 .337 0 .062.12 0 .205 0c.109 0 .202.095.202.225 0 .133-.093.222-.193.222C.125.447.092.37.082.342v.027M.205.027C.142.027.112.083.103.104a.467.467 0 00-.019.145c0 .079.036.178.126.178C.265.427.294.39.309.356.325.319.325.269.325.226c0-.051 0-.096-.019-.134C.281.044.245.027.205.027z"/></symbol><use xlink:href="#A" transform="matrix(11.9552 0 0 -11.9552 206.494 40.997)"/><path d="M216.32 44.065a1.409 1.409 0 10-2.818 0 1.409 1.409 0 002.818 0zm-1.41 0"/><symbol id="B"><path d="M.079.594A.296.296 0 01.168.579c.113 0 .185.083.185.097C.353.68.351.685.345.685c-.002 0-.004 0-.013-.004a.329.329 0 00-.13-.027C.136.654.089.674.07.682L.06.685C.052.685.052.679.052.663V.366c0-.018 0-.024.012-.024.005 0 .006.001.016.013A.15.15 0 00.205.42C.258.42.284.371.292.354A.327.327 0 00.31.228C.31.19.31.133.282.088A.124.124 0 00.177.027a.155.155 0 00-.149.118.045.045 0 01.016-.003c.017 0 .044.01.044.044C.088.214.069.23.044.23.026.23 0 .221 0 .182 0 .097.068 0 .179 0c.113 0 .212.095.212.222C.391.341.311.44.206.44A.173.173 0 01.079.387v.207z"/></symbol><use xlink:href="#B" transform="matrix(11.9552 0 0 -11.9552 161.758 148.594)"/><path d="M171.487 151.663a1.409 1.409 0 10-2.818 0 1.409 1.409 0 002.818 0zm-1.41 0"/><symbol id="C"><path d="M.597.256H.575C.551.1.527.029.358.029H.222c-.044 0-.046.007-.046.04v.27h.091C.363.339.374.308.374.222h.022v.263H.374C.374.399.363.368.267.368H.176v.244c0 .033.002.04.046.04h.133c.147 0 .178-.05.193-.194H.57L.544.681H0V.652h.02c.072 0 .075-.01.075-.047V.076C.095.039.092.029.02.029H0V0h.557l.04.256z"/></symbol><symbol id="D"><path d="M.27.236c.029.038.071.092.09.113a.153.153 0 00.12.053v.029L.396.429l-.09.002V.402C.319.4.335.394.335.371.335.354.326.343.32.335L.256.254.178.357C.175.361.169.37.169.377c0 .006.005.024.035.025v.029C.179.429.128.429.101.429L.005.431V.402C.056.402.075.4.096.373L.213.22C.215.218.219.212.219.209.219.206.141.108.131.095A.16.16 0 000 .029V0c.038.002.04.002.083.002L.173 0v.029C.149.032.145.047.145.061c0 .016.007.024.017.037l.072.093.082-.107C.333.062.333.06.333.054.333.046.325.03.298.029V0c.026.002.075.002.103.002L.496 0v.029C.443.029.425.031.401.063L.27.236z"/></symbol><symbol id="E"><path d="M.217.029c-.064 0-.076 0-.076.045v.174A.152.152 0 01.264.184C.379.184.48.281.48.41.48.537.386.635.277.635.189.635.142.572.139.568v.067L0 .624V.595C.07.595.076.588.076.544v-.47C.076.029.065.029 0 .029V0c.026.002.08.002.108.002.029 0 .083 0 .109-.002v.029M.141.513c0 .019 0 .02.011.036.03.045.079.064.117.064C.344.613.404.522.404.41.404.291.336.204.259.204a.118.118 0 00-.08.032C.156.259.141.279.141.307v.206z"/></symbol><symbol id="F"><path d="M.342.277c0 .054 0 .094-.044.133a.182.182 0 01-.124.046C.092.456.029.402.029.337c0-.029.019-.043.042-.043a.04.04 0 01.041.041c0 .041-.036.041-.051.041.023.042.071.06.111.06.046 0 .105-.038.105-.128v-.04C.076.265 0 .181 0 .104 0 .025.092 0 .153 0c.066 0 .111.04.13.088C.287.041.318.005.361.005.382.005.44.019.44.099v.056H.418V.099C.418.042.394.034.38.034.342.034.342.087.342.102v.175M.277.151C.277.053.204.02.161.02c-.049 0-.09.036-.09.084 0 .132.17.144.206.146V.151z"/></symbol><symbol id="G"><path d="M.413.243c0 .093 0 .121-.023.153C.361.435.314.441.28.441.183.441.145.358.137.338H.136v.103L0 .43V.401C.068.401.076.394.076.345V.074C.076.029.065.029 0 .029V0c.026.002.08.002.108.002.029 0 .083 0 .109-.002v.029c-.064 0-.076 0-.076.045V.26c0 .105.069.161.131.161S.348.37.348.309V.074C.348.029.337.029.272.029V0c.026.002.08.002.108.002.029 0 .083 0 .109-.002v.029c-.05 0-.075 0-.076.03v.184z"/></symbol><symbol id="H"><path d="M.295.433c0 .018 0 .023-.01.023C.277.456.258.434.251.425a.14.14 0 01-.094.031C.036.456 0 .39 0 .335 0 .324 0 .289.038.254.07.226.104.219.15.21.205.199.218.196.243.176A.083.083 0 00.274.111C.274.068.249.02.161.02.095.02.047.058.025.158L.02.178C.018.182.014.182.011.182 0 .182 0 .177 0 .159V.023C0 .005 0 0 .01 0c.005 0 .006.001.023.022.005.007.005.009.02.025C.091 0 .145 0 .162 0c.105 0 .157.058.157.137 0 .054-.033.086-.042.095C.241.263.214.269.148.281c-.03.006-.103.02-.103.08 0 .031.021.077.111.077.109 0 .115-.093.117-.124C.274.306.281.306.284.306c.011 0 .011.005.011.023v.104z"/></symbol><symbol id="I"><path d="M.141.616a.05.05 0 01-.049.049.048.048 0 01-.048-.048c0-.03.024-.049.048-.049.031 0 .049.026.049.048M.003.43V.401C.067.401.076.395.076.346V.074C.076.029.065.029 0 .029V0c.028.002.076.002.105.002.011 0 .069 0 .103-.002v.029C.143.029.139.034.139.073v.368L.003.43z"/></symbol><symbol id="J"><path d="M.429.224c0 .129-.098.232-.214.232C.095.456 0 .35 0 .224 0 .096.1 0 .214 0c.118 0 .215.098.215.224M.215.022a.127.127 0 00-.111.065.288.288 0 00-.028.146c0 .038 0 .099.031.144a.128.128 0 00.215.002C.353.333.353.27.353.233c0-.035 0-.097-.026-.144A.13.13 0 00.215.022z"/></symbol><use xlink:href="#C" transform="matrix(0 11.9552 11.9552 0 71.511 71.741)"/><use xlink:href="#D" transform="matrix(0 11.9552 11.9552 0 71.511 79.333)"/><use xlink:href="#E" transform="matrix(0 11.9552 11.9552 0 69.192 85.729)"/><use xlink:href="#F" transform="matrix(0 11.9552 11.9552 0 71.391 92.424)"/><use xlink:href="#G" transform="matrix(0 11.9552 11.9552 0 71.511 98.138)"/><use xlink:href="#H" transform="matrix(0 11.9552 11.9552 0 71.391 104.654)"/><use xlink:href="#I" transform="matrix(0 11.9552 11.9552 0 71.511 109.269)"/><use xlink:href="#J" transform="matrix(0 11.9552 11.9552 0 71.391 112.484)"/><use xlink:href="#G" transform="matrix(0 11.9552 11.9552 0 71.511 118.366)"/><symbol id="K"><path d="M.39.346c.009.022.026.065.09.066v.029C.451.439.437.439.406.439L.324.441V.412C.366.41.371.38.371.369A.06.06 0 00.364.343L.262.085.15.367C.145.381.144.381.144.386c0 .026.038.026.056.026v.029C.175.439.123.439.096.439L0 .441V.412C.056.412.066.408.078.377L.221.019C.226.005.228 0 .24 0c.007 0 .013.002.02.019l.13.327z"/></symbol><symbol id="L"><path d="M.139.233c0 .097.04.188.117.188L.27.42C.262.416.246.41.246.383c0-.029.023-.04.039-.04.02 0 .04.013.04.04 0 .03-.027.058-.07.058C.17.441.141.349.135.33H.134v.111L0 .43V.401C.068.401.076.394.076.345V.074C.076.029.065.029 0 .029V0c.028.002.083.002.113.002C.14.002.211.002.234 0v.029h-.02C.141.029.139.04.139.076v.157z"/></symbol><symbol id="M"><path d="M.15.412h.141v.029H.15v.184H.128C.127.531.091.435 0 .432v-.02h.085V.134C.085.023.159 0 .212 0c.063 0 .096.062.096.134v.057H.286V.136C.286.064.257.022.218.022.15.022.15.115.15.132v.28z"/></symbol><use xlink:href="#C" transform="matrix(11.9552 0 0 -11.9552 89.567 143.826)"/><use xlink:href="#K" transform="matrix(11.9552 0 0 -11.9552 97.254 143.946)"/><use xlink:href="#F" transform="matrix(11.9552 0 0 -11.9552 103.1 143.946)"/><use xlink:href="#E" transform="matrix(11.9552 0 0 -11.9552 108.767 146.145)"/><use xlink:href="#J" transform="matrix(11.9552 0 0 -11.9552 115.618 143.946)"/><use xlink:href="#L" transform="matrix(11.9552 0 0 -11.9552 121.452 143.826)"/><use xlink:href="#F" transform="matrix(11.9552 0 0 -11.9552 126.198 143.946)"/><use xlink:href="#M" transform="matrix(11.9552 0 0 -11.9552 131.745 143.946)"/><use xlink:href="#J" transform="matrix(11.9552 0 0 -11.9552 136.444 143.946)"/><use xlink:href="#L" transform="matrix(11.9552 0 0 -11.9552 142.278 143.826)"/><symbol id="N"><path d="M.598.702c0 .018 0 .023-.01.023C.582.725.581.723.575.713L.526.634a.24.24 0 01-.185.091A.353.353 0 010 .363C0 .156.16 0 .341 0a.26.26 0 01.257.253c0 .011 0 .017-.011.017C.577.27.576.265.576.258.567.099.451.029.354.029c-.07 0-.261.042-.261.334 0 .289.188.333.26.333C.458.696.55.607.57.457.572.445.572.442.584.442c.014 0 .014.003.014.023v.237z"/></symbol><symbol id="O"><path d="M.685.243c0 .093 0 .121-.023.153C.633.435.586.441.552.441A.151.151 0 01.411.342C.397.419.343.441.28.441.183.441.145.358.137.338H.136v.103L0 .43V.401C.068.401.076.394.076.345V.074C.076.029.065.029 0 .029V0c.026.002.08.002.108.002.029 0 .083 0 .109-.002v.029c-.064 0-.076 0-.076.045V.26c0 .105.069.161.131.161S.348.37.348.309V.074C.348.029.337.029.272.029V0c.026.002.08.002.108.002.029 0 .083 0 .109-.002v.029c-.064 0-.076 0-.076.045V.26c0 .105.069.161.131.161S.62.37.62.309V.074C.62.029.609.029.544.029V0c.026.002.08.002.108.002.029 0 .083 0 .109-.002v.029c-.05 0-.075 0-.076.03v.184z"/></symbol><symbol id="P"><path d="M.353.242c.022 0 .024 0 .024.019 0 .101-.054.195-.175.195C.088.456 0 .353 0 .229 0 .097.102 0 .213 0c.119 0 .164.108.164.129 0 .006-.005.01-.011.01-.008 0-.01-.005-.012-.01A.142.142 0 00.219.022C.177.022.076.05.076.223v.019h.277M.077.261c.008.157.096.175.124.175.107 0 .113-.141.114-.175H.077z"/></symbol><use xlink:href="#N" transform="scale(11.95514 -11.95514) rotate(67 15.224 5.688)"/><use xlink:href="#J" transform="scale(11.95514 -11.95514) rotate(67 14.875 6.199)"/><use xlink:href="#O" transform="scale(11.95514 -11.95514) rotate(67 14.621 6.565)"/><use xlink:href="#E" transform="scale(11.95514 -11.95514) rotate(67 14.362 7.276)"/><use xlink:href="#L" transform="scale(11.95514 -11.95514) rotate(67 13.943 7.59)"/><use xlink:href="#P" transform="scale(11.95514 -11.95514) rotate(67 13.759 7.884)"/><use xlink:href="#H" transform="scale(11.95514 -11.95514) rotate(67 13.54 8.215)"/><use xlink:href="#H" transform="scale(11.95514 -11.95514) rotate(67 13.347 8.507)"/><use xlink:href="#J" transform="scale(11.95514 -11.95514) rotate(67 13.156 8.796)"/><use xlink:href="#L" transform="scale(11.95514 -11.95514) rotate(67 12.904 9.16)"/><symbol id="Q"><path d="M.265.693V.664C.333.664.341.657.341.608V.387a.156.156 0 01-.125.064A.221.221 0 010 .225C0 .098.095 0 .205 0c.076 0 .12.05.134.069V0L.48.01v.029C.412.039.404.046.404.095v.609L.265.693M.339.127c0-.018 0-.021-.014-.043A.142.142 0 00.21.02C.184.02.076.03.076.224c0 .072.012.112.034.145C.13.4.17.431.22.431A.13.13 0 00.327.37C.339.353.339.351.339.333V.127z"/></symbol><use xlink:href="#N" transform="matrix(11.9552 0 0 -11.9552 114.138 37.71)"/><use xlink:href="#J" transform="matrix(11.9552 0 0 -11.9552 122.303 37.578)"/><use xlink:href="#G" transform="matrix(11.9552 0 0 -11.9552 128.185 37.458)"/><use xlink:href="#Q" transform="matrix(11.9552 0 0 -11.9552 134.724 37.578)"/><use xlink:href="#P" transform="matrix(11.9552 0 0 -11.9552 141.168 37.578)"/><use xlink:href="#G" transform="matrix(11.9552 0 0 -11.9552 146.393 37.458)"/><use xlink:href="#H" transform="matrix(11.9552 0 0 -11.9552 152.908 37.578)"/><use xlink:href="#P" transform="matrix(11.9552 0 0 -11.9552 157.487 37.578)"/><use xlink:href="#L" transform="matrix(11.9552 0 0 -11.9552 162.664 37.458)"/><symbol id="R"><path d="M.097.048A.048.048 0 11.048 0c.03 0 .049.024.049.048z"/></symbol><use xlink:href="#R" transform="matrix(11.9552 0 0 -11.9552 182.59 163.59)"/><symbol id="S"><path d="M.85.593c.023.039.045.076.105.082.009.001.018.002.018.018 0 .011-.009.011-.012.011C.959.704.952.702.886.702l-.09.002C.79.704.778.704.778.685c0-.009.008-.01.014-.01C.812.674.844.668.844.637.844.624.84.617.83.6L.557.122.521.643c0 .012.011.031.067.032.013 0 .023 0 .023.019 0 .01-.01.01-.015.01L.488.702H.436L.388.704C.382.704.37.704.37.685c0-.01.007-.01.024-.01C.44.675.44.674.444.613L.447.577.188.122.151.638c0 .011 0 .036.068.037.011 0 .022 0 .022.018 0 .011-.009.011-.015.011L.118.702H.066L.018.704C.012.704 0 .704 0 .685c0-.01.008-.01.022-.01.047 0 .048-.006.05-.038L.116.023C.117.006.118 0 .13 0c.01 0 .012.004.021.019L.449.54.486.023C.487.006.488 0 .5 0c.01 0 .013.005.021.019L.85.593z"/></symbol><use xlink:href="#S" transform="matrix(11.9552 0 0 -11.9552 177.472 173.654)"/><symbol id="T"><path d="M.74.303C.74.384.705.441.596.441A.173.173 0 01.442.349C.424.421.367.441.302.441A.172.172 0 01.146.345H.145v.096L0 .43V.397C.068.397.076.39.076.341V.078C.076.033.064.033 0 .033V0c.043.003.087.003.114.003.029 0 .071 0 .114-.003v.033c-.064 0-.076 0-.076.045v.181c0 .105.079.154.142.154C.359.413.37.362.37.307V.078C.37.033.358.033.294.033V0c.043.003.087.003.114.003.029 0 .071 0 .114-.003v.033c-.064 0-.076 0-.076.045v.181c0 .105.079.154.142.154.065 0 .076-.051.076-.106V.078C.664.033.652.033.588.033V0c.043.003.087.003.114.003.029 0 .071 0 .114-.003v.033C.752.033.74.033.74.078v.225z"/></symbol><use xlink:href="#h" transform="matrix(7.9701 0 0 -7.9701 188.168 175.276)"/><use xlink:href="#i" transform="matrix(7.9701 0 0 -7.9701 191.89 175.276)"/><use xlink:href="#T" transform="matrix(7.9701 0 0 -7.9701 196.21 175.196)"/><use xlink:href="#o" transform="matrix(7.9701 0 0 -7.9701 203.215 176.742)"/><use xlink:href="#R" transform="matrix(11.9552 0 0 -11.9552 102.5 163.59)"/><symbol id="U"><path d="M.649.232c.001.003.004.01.004.014a.01.01 0 01-.01.01C.639.256.637.255.634.252.632.251.632.249.623.229.564.089.521.029.361.029H.215L.193.03C.182.031.181.033.181.041c0 .007.002.013.004.022l.069.276h.099C.431.339.437.322.437.292c0-.01 0-.019-.007-.049A.026.026 0 01.427.232c0-.007.005-.01.011-.01.009 0 .01.007.014.021l.057.232a.01.01 0 01-.01.01C.49.485.489.481.485.467.465.39.445.368.356.368H.261l.062.246c.009.035.011.038.052.038h.143C.641.652.666.619.666.543c0-.001 0-.029-.004-.062A.074.074 0 01.66.469C.66.461.665.458.671.458c.007 0 .011.004.013.022l.021.175.002.015C.707.681.698.681.68.681H.192c-.019 0-.029 0-.029-.018C.163.652.17.652.187.652.249.652.249.645.249.634a.074.074 0 00-.004-.02L.11.074C.101.039.099.029.029.029.01.029 0 .029 0 .011 0 0 .006 0 .026 0h.502c.022 0 .023.001.03.017l.091.215z"/></symbol><use xlink:href="#U" transform="matrix(11.9552 0 0 -11.9552 97.976 173.403)"/><symbol id="V"><path d="M.149.228c0 .075.031.183.127.185C.27.409.26.401.26.378.26.347.284.333.304.333c.024 0 .045.016.045.045 0 .035-.032.063-.076.063C.208.441.164.392.143.336H.142v.105L0 .43V.397C.068.397.076.39.076.341V.078C.076.033.064.033 0 .033V0c.039.003.094.003.118.003.059 0 .061 0 .126-.003v.033h-.02C.151.033.149.044.149.08v.148z"/></symbol><symbol id="W"><path d="M.155.398h.12v.033H.152v.113c0 .087.049.132.093.132C.261.676.27.672.274.671A.042.042 0 01.251.632C.251.606.27.587.296.587c.027 0 .045.019.045.045 0 .043-.042.072-.095.072C.171.704.082.65.082.543V.431H0V.398h.082v-.32C.082.033.07.033.006.033V0C.045.003.1.003.124.003.183.003.185.003.25 0v.033H.23C.157.033.155.044.155.08v.318z"/></symbol><symbol id="X"><path d="M.095.209c0-.03 0-.112-.076-.183C.016.023.013.021.013.015.013.006.022 0 .027 0 .04 0 .123.078.123.198c0 .055-.02.107-.068.107A.054.054 0 010 .25C0 .22.021.194.056.194c.022 0 .036.012.039.015z"/></symbol><use xlink:href="#V" transform="matrix(7.9701 0 0 -7.9701 106.37 175.196)"/><use xlink:href="#l" transform="matrix(7.9701 0 0 -7.9701 109.63 175.276)"/><use xlink:href="#W" transform="matrix(7.9701 0 0 -7.9701 113.44 175.196)"/><use xlink:href="#X" transform="matrix(7.9701 0 0 -7.9701 116.476 176.742)"/><use xlink:href="#l" transform="matrix(7.9701 0 0 -7.9701 121.154 175.276)"/><use xlink:href="#m" transform="matrix(7.9701 0 0 -7.9701 124.853 175.276)"/><use xlink:href="#n" transform="matrix(7.9701 0 0 -7.9701 129.029 175.276)"/><use xlink:href="#o" transform="matrix(7.9701 0 0 -7.9701 133.19 176.742)"/></g><use xlink:href="#a" transform="matrix(11.9552 0 0 -11.9552 244.574 191.8)"/><use xlink:href="#g" transform="matrix(11.9552 0 0 -11.9552 31.555 12.07)"/></svg>