<svg xmlns="http://www.w3.org/2000/svg" xmlns:xlink="http://www.w3.org/1999/xlink" width="389pt" height="409pt" viewBox="0 0 389 409"><clipPath id="a"><path transform="matrix(1 0 0 -1 -119 598)" d="M0 0h612v792H0z"/></clipPath><g clip-path="url(#a)"><path stroke-width=".1592" stroke-miterlimit="10" fill="none" stroke="#929292" d="M34.081 141.004v-3.402m38.855 3.402v-3.402m38.854 3.402v-3.402m38.855 3.402v-3.402m38.854 3.402v-3.402M34.081 141.004h3.402m-3.402-32.28h3.402M34.08 76.446h3.402M34.08 44.166h3.402m-3.402-32.28h3.402"/><path stroke-width=".31920000000000004" stroke-miterlimit="10" fill="none" stroke="#000" d="M34.081 141.004H189.5M34.081 141.004V11.887"/><symbol id="b"><path d="M.407.341a.546.546 0 01-.041.24.179.179 0 01-.328-.007A.53.53 0 010 .341C0 .244.007.171.043.1a.178.178 0 01.16-.1C.29 0 .34.052.369.11a.56.56 0 01.038.231M.203.02C.171.02.106.038.087.147.076.207.076.283.076.353c0 .082 0 .156.016.215.017.067.068.098.111.098.038 0 .096-.023.115-.109C.331.5.331.421.331.353.331.286.331.21.32.149.301.039.238.02.203.02z"/></symbol><use xlink:href="#b" transform="matrix(9.56416 0 0 -9.56416 32.133 150.649)"/><use xlink:href="#b" transform="matrix(9.56416 0 0 -9.56416 65.003 150.649)"/><symbol id="c"><path d="M.097.048a.049.049 0 01-.048.049A.049.049 0 010 .049C0 .02.024 0 .048 0c.029 0 .049.024.049.048z"/></symbol><use xlink:href="#c" transform="matrix(9.56416 0 0 -9.56416 70.125 150.448)"/><symbol id="d"><path d="M.079.594A.296.296 0 01.168.579c.113 0 .185.083.185.097C.353.68.351.685.345.685c-.002 0-.004 0-.013-.004a.329.329 0 00-.13-.027C.136.654.089.674.07.682L.06.685C.052.685.052.679.052.663V.366c0-.018 0-.024.012-.024.005 0 .006.001.016.013A.15.15 0 00.205.42C.258.42.284.371.292.354A.327.327 0 00.31.228C.31.19.31.133.282.088A.124.124 0 00.177.027a.155.155 0 00-.149.118.045.045 0 01.016-.003c.017 0 .044.01.044.044C.088.214.069.23.044.23.026.23 0 .221 0 .182 0 .097.068 0 .179 0c.113 0 .212.095.212.222C.391.341.311.44.206.44A.173.173 0 01.079.387v.207z"/></symbol><use xlink:href="#b" transform="matrix(9.56416 0 0 -9.56416 72.287 150.649)"/><use xlink:href="#d" transform="matrix(9.56416 0 0 -9.56416 77.05 150.649)"/><use xlink:href="#b" transform="matrix(9.56416 0 0 -9.56416 106.198 150.649)"/><use xlink:href="#c" transform="matrix(9.56416 0 0 -9.56416 111.32 150.448)"/><symbol id="e"><path d="M.197.641c0 .023 0 .024-.02.024C.153.638.103.601 0 .601V.572c.023 0 .073 0 .128.026V.077C.128.041.125.029.037.029H.006V0C.033.002.13.002.163.002S.292.002.319 0v.029H.288C.2.029.197.041.197.077v.564z"/></symbol><use xlink:href="#e" transform="matrix(9.56416 0 0 -9.56416 113.96 150.448)"/><use xlink:href="#b" transform="matrix(9.56416 0 0 -9.56416 142.71 150.649)"/><use xlink:href="#c" transform="matrix(9.56416 0 0 -9.56416 147.833 150.448)"/><use xlink:href="#e" transform="matrix(9.56416 0 0 -9.56416 150.473 150.448)"/><use xlink:href="#d" transform="matrix(9.56416 0 0 -9.56416 154.758 150.649)"/><use xlink:href="#b" transform="matrix(9.56416 0 0 -9.56416 183.906 150.649)"/><use xlink:href="#c" transform="matrix(9.56416 0 0 -9.56416 189.028 150.448)"/><symbol id="f"><path d="M.391.168H.369C.366.151.358.096.348.08.341.071.284.071.254.071H.069c.027.023.088.087.114.111.152.14.208.192.208.291C.391.588.3.665.184.665A.185.185 0 010 .48C0 .429.044.429.047.429c.021 0 .047.015.047.047a.045.045 0 01-.047.047L.033.522C.052.59.106.636.171.636.256.636.308.565.308.473.308.388.259.314.202.25L0 .024V0h.365l.026.168z"/></symbol><use xlink:href="#f" transform="matrix(9.56416 0 0 -9.56416 191.267 150.448)"/><use xlink:href="#b" transform="matrix(9.56416 0 0 -9.56416 26.51 144.286)"/><use xlink:href="#f" transform="matrix(9.56416 0 0 -9.56416 17.223 111.807)"/><use xlink:href="#b" transform="matrix(9.56416 0 0 -9.56416 21.833 112.008)"/><use xlink:href="#b" transform="matrix(9.56416 0 0 -9.56416 26.519 112.008)"/><symbol id="g"><path d="M.334.651c0 .019 0 .024-.014.024-.008 0-.011 0-.019-.012L0 .196V.167h.263V.076C.263.039.261.029.188.029h-.02V0c.023.002.102.002.13.002.028 0 .108 0 .131-.002v.029h-.02c-.072 0-.075.01-.075.047v.091h.101v.029H.334v.455M.268.573V.196H.025l.243.377z"/></symbol><use xlink:href="#g" transform="matrix(9.56416 0 0 -9.56416 17.012 79.528)"/><use xlink:href="#b" transform="matrix(9.56416 0 0 -9.56416 21.833 79.729)"/><use xlink:href="#b" transform="matrix(9.56416 0 0 -9.56416 26.519 79.729)"/><symbol id="h"><path d="M.082.369c0 .253.123.293.177.293C.295.662.331.651.35.621.338.621.3.621.3.58A.04.04 0 01.341.539c.025 0 .042.015.042.044 0 .052-.038.103-.125.103C.132.686 0 .557 0 .337 0 .062.12 0 .205 0c.109 0 .202.095.202.225 0 .133-.093.222-.193.222C.125.447.092.37.082.342v.027M.205.027C.142.027.112.083.103.104a.467.467 0 00-.019.145c0 .079.036.178.126.178C.265.427.294.39.309.356.325.319.325.269.325.226c0-.051 0-.096-.019-.134C.281.044.245.027.205.027z"/></symbol><use xlink:href="#h" transform="matrix(9.56416 0 0 -9.56416 17.146 47.45)"/><use xlink:href="#b" transform="matrix(9.56416 0 0 -9.56416 21.833 47.45)"/><use xlink:href="#b" transform="matrix(9.56416 0 0 -9.56416 26.519 47.45)"/><symbol id="i"><path d="M.257.382C.307.409.38.455.38.539.38.626.296.686.204.686.105.686.027.613.027.522c0-.034.01-.068.038-.102A.364.364 0 01.147.357C.05.312 0 .245 0 .172 0 .066.101 0 .203 0c.111 0 .204.082.204.187 0 .102-.072.147-.15.195m-.136.09C.108.481.068.507.068.556c0 .065.068.106.135.106C.275.662.339.61.339.538.339.477.295.428.237.396L.121.472M.168.343L.289.264C.315.247.361.216.361.155.361.079.284.027.204.027.119.027.046.089.046.172c0 .078.057.141.122.171z"/></symbol><use xlink:href="#i" transform="matrix(9.56416 0 0 -9.56416 17.146 15.171)"/><use xlink:href="#b" transform="matrix(9.56416 0 0 -9.56416 21.833 15.171)"/><use xlink:href="#b" transform="matrix(9.56416 0 0 -9.56416 26.519 15.171)"/><clipPath id="j"><path transform="matrix(.8 0 0 -.8 34.081 141.394)" d="M0 .488h194.272v161.396H0z"/></clipPath><g clip-path="url(#j)" stroke-width=".399" stroke-miterlimit="10" fill="none"><path stroke="#0f0" d="M34.081 141.394h21.317l1.604-.371 1.604-1.267 1.604-2.592 1.603-3.956 1.604-5.012 1.604-5.568 1.604-5.966 1.604-6.1 1.604-6.119 1.604-6.05 1.604-5.64 1.602-5.702 1.604-5.367 1.604-4.96 1.604-4.433 1.604-3.716 1.604-2.839 1.604-1.945 1.603-1.175 1.604-.759 1.605-.576 1.603-.458 1.605-.445 1.604-.424 1.604-.392 1.605-.364 1.603-.352 1.602-.344 1.604-.308 1.604-.293 1.603-.285 1.604-.247 1.605-.261 1.603-.229 1.604-.192 1.603-.206 1.606-.165 1.604-.159 1.604-.18 1.603-.302 1.605-.17 1.603.147 1.604-.226 1.604-.071 1.604-.099 1.603-.179 1.603-.166 1.603-.126 1.604-.063 1.603-.19 1.605.354 1.604-.112 1.604-.033 1.603-.222 1.604.008 1.605.078 1.605-.025h1.604l1.603-.057 1.603-.052 1.603-.016 1.604-.006 1.604.073 1.603.092 1.604.087 1.605.09 1.604.131 1.603.21 1.604.209 1.605.253 1.604.338 1.604.353 1.604.414 1.604.483 1.604.53 1.604.618 1.603.67 1.603.764 1.604.849 1.603 1 1.606 79.758" stroke-width=".31920000000000004"/><path stroke="red" d="M34.081 141.394v-.004l.054-.001 1.32-.003 1.432-.003 1.433-.002h1.433l1.433-.001 1.433-.001 1.433-.008 1.433.011h4.299l1.433-.008 1.433.003h1.433l1.433-.002 1.433-.002 1.433-.017 1.433-.043 1.433-.226 1.432-1.64 1.433-3.359 1.433-4.569 1.433-5.275 1.432-5.893 1.433-6.333 1.433-6.557 1.433-6.612 1.433-6.718 1.432-6.602 1.433-6.665 1.433-6.575 1.433-6.392 1.433-6.183 1.432-6.017 1.433-5.765 1.433-5.387 1.433-4.917L88.47 35.3l1.434-3.212 1.433-1.896 1.434-.72 1.432-.199 1.433-.035 1.434-.024 1.433-.02 1.433-.083 1.432-.083 1.434-.087 1.433-.08 1.433-.08 1.432-.028 1.433-.023 1.433-.011 1.434.024 1.432.031 1.432.06 1.433.079 1.433.097 1.434.12 1.433.15 1.432.209 1.432.204 1.433.261 1.433.337 1.433.373 1.433.485 1.432.534 1.433.593 1.434.659 1.433.734 1.434.755 1.433.8 1.431.835 1.433.854 1.433.86 1.433.895 1.432.906 1.434.927 1.432.947 1.433.963 1.435 1.02 1.433 1 1.433 1.027 1.433 1.044 1.433 1.117 1.433 1.13 1.433 1.145 1.433 1.183 1.432 1.225 1.432 1.263 1.433 1.346 1.433 1.404 1.433 1.514 1.433 83.464" stroke-width=".31920000000000004"/></g><symbol id="k"><path d="M.295.433c0 .018 0 .023-.01.023C.277.456.258.434.251.425a.14.14 0 01-.094.031C.036.456 0 .39 0 .335 0 .324 0 .289.038.254.07.226.104.219.15.21.205.199.218.196.243.176A.083.083 0 00.274.111C.274.068.249.02.161.02.095.02.047.058.025.158L.02.178C.018.182.014.182.011.182 0 .182 0 .177 0 .159V.023C0 .005 0 0 .01 0c.005 0 .006.001.023.022.005.007.005.009.02.025C.091 0 .145 0 .162 0c.105 0 .157.058.157.137 0 .054-.033.086-.042.095C.241.263.214.269.148.281c-.03.006-.103.02-.103.08 0 .031.021.077.111.077.109 0 .115-.093.117-.124C.274.306.281.306.284.306c.011 0 .011.005.011.023v.104z"/></symbol><symbol id="l"><path d="M.15.412h.141v.029H.15v.184H.128C.127.531.091.435 0 .432v-.02h.085V.134C.085.023.159 0 .212 0c.063 0 .096.062.096.134v.057H.286V.136C.286.064.257.022.218.022.15.022.15.115.15.132v.28z"/></symbol><symbol id="m"><path d="M.139.233c0 .097.04.188.117.188L.27.42C.262.416.246.41.246.383c0-.029.023-.04.039-.04.02 0 .04.013.04.04 0 .03-.027.058-.07.058C.17.441.141.349.135.33H.134v.111L0 .43V.401C.068.401.076.394.076.345V.074C.076.029.065.029 0 .029V0c.028.002.083.002.113.002C.14.002.211.002.234 0v.029h-.02C.141.029.139.04.139.076v.157z"/></symbol><symbol id="n"><path d="M.342.277c0 .054 0 .094-.044.133a.182.182 0 01-.124.046C.092.456.029.402.029.337c0-.029.019-.043.042-.043a.04.04 0 01.041.041c0 .041-.036.041-.051.041.023.042.071.06.111.06.046 0 .105-.038.105-.128v-.04C.076.265 0 .181 0 .104 0 .025.092 0 .153 0c.066 0 .111.04.13.088C.287.041.318.005.361.005.382.005.44.019.44.099v.056H.418V.099C.418.042.394.034.38.034.342.034.342.087.342.102v.175M.277.151C.277.053.204.02.161.02c-.049 0-.09.036-.09.084 0 .132.17.144.206.146V.151z"/></symbol><symbol id="o"><path d="M.141.616a.05.05 0 01-.049.049.048.048 0 01-.048-.048c0-.03.024-.049.048-.049.031 0 .049.026.049.048M.003.43V.401C.067.401.076.395.076.346V.074C.076.029.065.029 0 .029V0c.028.002.076.002.105.002.011 0 .069 0 .103-.002v.029C.143.029.139.034.139.073v.368L.003.43z"/></symbol><symbol id="p"><path d="M.413.243c0 .093 0 .121-.023.153C.361.435.314.441.28.441.183.441.145.358.137.338H.136v.103L0 .43V.401C.068.401.076.394.076.345V.074C.076.029.065.029 0 .029V0c.026.002.08.002.108.002.029 0 .083 0 .109-.002v.029c-.064 0-.076 0-.076.045V.26c0 .105.069.161.131.161S.348.37.348.309V.074C.348.029.337.029.272.029V0c.026.002.08.002.108.002.029 0 .083 0 .109-.002v.029c-.05 0-.075 0-.076.03v.184z"/></symbol><use xlink:href="#k" transform="matrix(9.56416 0 0 -9.56416 100.373 163.293)"/><use xlink:href="#l" transform="matrix(9.56416 0 0 -9.56416 103.921 163.293)"/><use xlink:href="#m" transform="matrix(9.56416 0 0 -9.56416 107.66 163.197)"/><use xlink:href="#n" transform="matrix(9.56416 0 0 -9.56416 111.458 163.293)"/><use xlink:href="#o" transform="matrix(9.56416 0 0 -9.56416 116.039 163.197)"/><use xlink:href="#p" transform="matrix(9.56416 0 0 -9.56416 118.63 163.197)"/><symbol id="q"><path d="M.353.242c.022 0 .024 0 .024.019 0 .101-.054.195-.175.195C.088.456 0 .353 0 .229 0 .097.102 0 .213 0c.119 0 .164.108.164.129 0 .006-.005.01-.011.01-.008 0-.01-.005-.012-.01A.142.142 0 00.219.022C.177.022.076.05.076.223v.019h.277M.077.261c.008.157.096.175.124.175.107 0 .113-.141.114-.175H.077z"/></symbol><symbol id="r"><path d="M.134 0v.037H.037v.926h.097V1H0V0h.134z"/></symbol><symbol id="s"><path d="M.186.664C.179.683.178.683.155.683H0V.654h.02c.072 0 .075-.01.075-.047V.103c0-.027 0-.074-.095-.074V0c.026.002.079.002.107.002.028 0 .081 0 .107-.002v.029C.119.029.119.076.119.103v.546H.12l.241-.63C.365.008.368 0 .378 0c.009 0 .011.005.017.02l.243.634h.001V.076C.639.039.636.029.564.029h-.02V0c.023.002.103.002.132.002.029 0 .109 0 .132-.002v.029h-.02c-.072 0-.075.01-.075.047v.531c0 .037.003.047.075.047h.02v.029H.653C.631.683.63.682.622.663L.404.094l-.218.57z"/></symbol><symbol id="t"><path d="M.176.318h.169c.117 0 .224.079.224.18 0 .097-.097.185-.232.185H0V.654h.02c.072 0 .075-.01.075-.047V.076C.095.039.092.029.02.029H0V0c.024.002.106.002.135.002.03 0 .112 0 .136-.002v.029h-.02c-.072 0-.075.01-.075.047v.242M.174.342v.272c0 .033.002.04.046.04h.094C.476.654.476.541.476.498c0-.042 0-.156-.163-.156H.174z"/></symbol><symbol id="u"><path d="M.134 1H0V.963h.097V.037H0V0h.134v1z"/></symbol><use xlink:href="#k" transform="matrix(0 -9.56416 -9.56416 0 8.056 101.244)"/><use xlink:href="#l" transform="matrix(0 -9.56416 -9.56416 0 8.056 97.696)"/><use xlink:href="#m" transform="matrix(0 -9.56416 -9.56416 0 7.96 93.956)"/><use xlink:href="#q" transform="matrix(0 -9.56416 -9.56416 0 8.056 90.293)"/><use xlink:href="#k" transform="matrix(0 -9.56416 -9.56416 0 8.056 86.104)"/><use xlink:href="#k" transform="matrix(0 -9.56416 -9.56416 0 8.056 82.412)"/><use xlink:href="#r" transform="matrix(0 -9.56416 -9.56416 0 10.351 74.809)"/><use xlink:href="#s" transform="matrix(0 -9.56416 -9.56416 0 7.96 72.896)"/><use xlink:href="#t" transform="matrix(0 -9.56416 -9.56416 0 7.96 64.336)"/><use xlink:href="#n" transform="matrix(0 -9.56416 -9.56416 0 8.056 58.205)"/><use xlink:href="#u" transform="matrix(0 -9.56416 -9.56416 0 10.351 53.739)"/><path stroke-width=".399" stroke-miterlimit="10" fill="none" stroke="#000" d="M100.166 25.314h91.291V.74h-91.291z"/><symbol id="v"><path d="M.094.352c0 .083.007.156.043.217.03.05.081.091.144.091C.301.66.347.657.37.622.325.62.321.586.321.575c0-.03.023-.047.047-.047.018 0 .047.011.047.049C.415.637.37.686.28.686.141.686 0 .554 0 .338 0 .067.126 0 .223 0c.048 0 .1.013.145.056.04.039.074.081.074.168a.215.215 0 01-.21.223C.16.447.117.401.094.352M.223.03a.116.116 0 00-.101.065.365.365 0 00-.025.151c0 .099.054.173.131.173.05 0 .08-.026.099-.061C.348.321.348.276.348.225c0-.051 0-.095-.02-.131C.302.048.267.03.223.03z"/></symbol><symbol id="w"><path d="M.448.34a.478.478 0 01-.044.236.196.196 0 01-.18.11C.098.686.052.592.038.564A.54.54 0 010 .34C0 .274.003.173.051.093A.199.199 0 01.224 0c.048 0 .134.015.184.114.037.072.04.161.04.226M.224.028C.19.028.121.044.1.149.089.206.089.3.089.352c0 .069 0 .139.011.194.021.102.099.112.124.112C.258.658.327.641.347.55.359.495.359.42.359.352c0-.059 0-.149-.012-.205C.326.042.257.028.224.028z"/></symbol><symbol id="x"><path d="M.364.647c0 .02 0 .028-.021.028C.33.675.329.674.319.66L0 .197V.164h.282V.081C.282.044.279.033.202.033H.179V0c.085.003.087.003.144.003C.38.003.382.003.467 0v.033H.444c-.077 0-.08.011-.08.048v.083H.47v.033H.364v.45M.289.566V.197H.035l.254.369z"/></symbol><symbol id="y"><path d="M0 .683V.65h.022C.099.65.101.639.101.602V.081C.101.044.099.033.022.033H0V0h.408c.138 0 .236.088.236.183 0 .081-.077.16-.202.174.109.023.172.089.172.157 0 .089-.1.169-.234.169H0M.186.369v.24c0 .034.002.041.048.041h.139A.138.138 0 00.517.514C.517.446.457.369.343.369H.186M.234.033C.188.033.186.04.186.074v.267h.203A.153.153 0 00.543.184C.543.103.476.033.374.033h-.14z"/></symbol><symbol id="z"><path d="M.606.602c0 .037.002.048.079.048h.022v.033C.622.68.62.68.56.68S.498.68.413.683V.65h.022C.512.65.514.639.514.602v-.23H.193v.23c0 .037.002.048.079.048h.022v.033C.209.68.207.68.147.68S.085.68 0 .683V.65h.022C.099.65.101.639.101.602V.081C.101.044.099.033.022.033H0V0c.085.003.087.003.147.003S.209.003.294 0v.033H.272C.195.033.193.044.193.081v.258h.321V.081C.514.044.512.033.435.033H.413V0C.498.003.5.003.56.003S.622.003.707 0v.033H.685C.608.033.606.044.606.081v.521z"/></symbol><use xlink:href="#v" transform="matrix(7.9701 0 0 -7.9701 109.316 10.356)"/><use xlink:href="#w" transform="matrix(7.9701 0 0 -7.9701 113.524 10.356)"/><use xlink:href="#x" transform="matrix(7.9701 0 0 -7.9701 117.668 10.189)"/><use xlink:href="#w" transform="matrix(7.9701 0 0 -7.9701 121.988 10.356)"/><use xlink:href="#y" transform="matrix(7.9701 0 0 -7.9701 129.097 10.189)"/><use xlink:href="#z" transform="matrix(7.9701 0 0 -7.9701 135.06 10.189)"/><use xlink:href="#z" transform="matrix(7.9701 0 0 -7.9701 141.403 10.189)"/><path stroke-width=".399" stroke-miterlimit="10" fill="none" stroke="#0f0" d="M165.448 7.648h17.008"/><symbol id="A"><path d="M.111.055a.055.055 0 01-.055.056A.055.055 0 010 .056C0 .022.027 0 .055 0c.034 0 .056.027.056.055z"/></symbol><symbol id="B"><path d="M.218.637c0 .027-.002.028-.029.028C.148.625.095.601 0 .601V.568c.027 0 .081 0 .139.027V.082C.139.045.136.033.041.033H.006V0c.041.003.127.003.172.003C.223.003.31.003.351 0v.033H.316C.221.033.218.045.218.082v.555z"/></symbol><symbol id="C"><path d="M.668.762C.677.774.677.78.677.783c0 .013-.01.023-.023.023C.643.806.638.799.632.792a.243.243 0 00-.2-.097.308.308 0 00-.198.076C.216.787.194.806.155.806.074.806 0 .721 0 .605 0 .486.076.403.155.403s.139.09.139.201a.288.288 0 01-.019.105C.351.667.421.667.433.667c.024 0 .081.004.13.031L.564.697.1.045C.089.031.089.029.089.023.089.01.099 0 .112 0c.009 0 .015.004.023.015l.533.747M.157.431C.139.431.068.44.068.604c0 .165.07.174.089.174.052 0 .106-.07.106-.173C.263.499.208.431.157.431m.609-.23c0 .115-.062.202-.139.202C.546.403.472.318.472.202.472.083.548 0 .627 0s.139.09.139.201M.629.028C.611.028.54.037.54.201c0 .165.07.174.089.174.052 0 .106-.07.106-.173C.735.096.68.028.629.028z"/></symbol><symbol id="D"><path d="M.648.699c0 .016 0 .026-.013.026C.628.725.627.724.618.711L.567.637a.268.268 0 01-.198.088A.367.367 0 010 .363C0 .161.167 0 .37 0c.168 0 .278.133.278.255 0 .01 0 .019-.016.019C.621.274.618.269.617.259A.233.233 0 00.379.033c-.085 0-.275.052-.275.33 0 .269.18.329.275.329.094 0 .21-.067.236-.239C.616.445.617.438.631.438c.017 0 .017.007.017.026v.235z"/></symbol><symbol id="E"><path d="M.174.438C.11.453.063.504.063.565c0 .067.058.13.145.13.173 0 .196-.162.201-.2C.411.484.412.477.425.477c.016 0 .016.007.016.026v.196c0 .016 0 .026-.013.026C.42.725.418.722.411.711L.376.655a.22.22 0 01-.169.07C.088.725 0 .635 0 .533 0 .457.043.415.062.396.098.36.131.352.239.327.325.307.34.304.373.269A.142.142 0 00.261.033c-.11 0-.224.053-.23.192C.03.241.03.248.016.248 0 .248 0 .24 0 .221V.026C0 .01 0 0 .013 0c.008 0 .009.002.016.012.004.006.008.015.036.057A.288.288 0 01.262 0a.206.206 0 01.05.406L.174.438z"/></symbol><symbol id="F"><path d="M.387.692C.382.705.379.714.362.714.344.714.341.706.336.692L.113.103C.103.076.082.033 0 .033V0c.032.003.085.003.103.003.032 0 .062 0 .111-.003v.033C.17.034.144.054.144.083c0 .007 0 .009.005.021l.047.125h.272L.524.081C.529.069.529.065.529.063c0-.03-.052-.03-.08-.03V0c.085.003.087.003.142.003.056 0 .074 0 .132-.003v.033H.706C.643.033.633.042.621.074L.387.692M.332.589L.455.262H.208l.124.327z"/></symbol><symbol id="G"><path d="M0 .683V.65h.022C.099.65.101.639.101.602V.081C.101.044.099.033.022.033H0V0h.38c.18 0 .325.15.325.335C.705.528.559.683.38.683H0m.238-.65C.192.033.19.04.19.074v.535C.19.643.192.65.238.65h.115A.245.245 0 00.54.568C.604.492.604.385.604.336c0-.051 0-.149-.063-.223a.244.244 0 00-.188-.08H.238z"/></symbol><use xlink:href="#w" transform="matrix(7.9701 0 0 -7.9701 109.292 19.821)"/><use xlink:href="#A" transform="matrix(7.9701 0 0 -7.9701 113.93 19.654)"/><use xlink:href="#B" transform="matrix(7.9701 0 0 -7.9701 116.313 19.654)"/><use xlink:href="#C" transform="matrix(7.9701 0 0 -7.9701 120.25 20.1)"/><use xlink:href="#D" transform="matrix(7.9701 0 0 -7.9701 130.126 19.821)"/><use xlink:href="#E" transform="matrix(7.9701 0 0 -7.9701 136.239 19.821)"/><use xlink:href="#F" transform="matrix(7.9701 0 0 -7.9701 140.758 19.654)"/><use xlink:href="#G" transform="matrix(7.9701 0 0 -7.9701 147.182 19.654)"/><path stroke-width=".399" stroke-miterlimit="10" fill="none" stroke="red" d="M165.448 17.113h17.008"/><symbol id="H"><path d="M.232.01c0 .003 0 .005-.017.022C.09.158.058.347.058.5c0 .174.038.348.161.473.013.012.013.014.013.017 0 .007-.004.01-.01.01-.01 0-.1-.068-.159-.195A.727.727 0 010 .5C0 .422.011.301.066.188A.432.432 0 01.222 0c.006 0 .01.003.01.01z"/></symbol><symbol id="I"><path d="M.291.087C.295.047.322.005.369.005.39.005.451.019.451.1v.056H.426V.1C.426.042.401.036.39.036c-.033 0-.037.045-.037.05v.2c0 .042 0 .081-.036.118A.191.191 0 01.18.459C.098.459.029.412.029.346c0-.03.02-.047.046-.047.028 0 .046.02.046.046C.121.357.116.39.07.391c.027.035.076.046.108.046.049 0 .106-.039.106-.128V.272C.233.269.163.266.1.236.025.202 0 .15 0 .106 0 .025.097 0 .16 0c.066 0 .112.04.131.087M.284.251v-.1C.284.056.212.022.167.022c-.049 0-.09.035-.09.085 0 .055.042.138.207.144z"/></symbol><symbol id="J"><path d="M.232.5a.729.729 0 01-.066.312A.432.432 0 01.01 1C.004 1 0 .996 0 .99 0 .987 0 .985.019.967.117.868.174.709.174.5.174.329.137.153.013.027 0 .015 0 .013 0 .01 0 .004.004 0 .01 0c.01 0 .1.068.159.195C.22.305.232.416.232.5z"/></symbol><use xlink:href="#H" transform="matrix(10.9091 0 0 -10.9091 79.198 184.508)"/><use xlink:href="#I" transform="matrix(10.9091 0 0 -10.9091 82.82 181.901)"/><use xlink:href="#J" transform="matrix(10.9091 0 0 -10.9091 88.438 184.508)"/><path stroke-width=".1592" stroke-miterlimit="10" fill="none" stroke="#929292" d="M220.19 141.502V138.1m25.904 3.402V138.1m25.903 3.402V138.1m25.903 3.402V138.1m25.903 3.402V138.1m25.903 3.402V138.1m25.903 3.402V138.1M220.19 141.502h3.402m-3.401-32.28h3.401m-3.401-32.279h3.401m-3.401-32.279h3.401m-3.401-32.28h3.401"/><path stroke-width=".31920000000000004" stroke-miterlimit="10" fill="none" stroke="#000" d="M220.19 141.502H375.61M220.19 141.502V12.385"/><use xlink:href="#b" transform="matrix(9.56416 0 0 -9.56416 218.242 151.147)"/><use xlink:href="#b" transform="matrix(9.56416 0 0 -9.56416 238.161 151.147)"/><use xlink:href="#c" transform="matrix(9.56416 0 0 -9.56416 243.284 150.946)"/><use xlink:href="#b" transform="matrix(9.56416 0 0 -9.56416 245.445 151.147)"/><use xlink:href="#d" transform="matrix(9.56416 0 0 -9.56416 250.208 151.147)"/><use xlink:href="#b" transform="matrix(9.56416 0 0 -9.56416 266.405 151.147)"/><use xlink:href="#c" transform="matrix(9.56416 0 0 -9.56416 271.528 150.946)"/><use xlink:href="#e" transform="matrix(9.56416 0 0 -9.56416 274.168 150.946)"/><use xlink:href="#b" transform="matrix(9.56416 0 0 -9.56416 289.967 151.147)"/><use xlink:href="#c" transform="matrix(9.56416 0 0 -9.56416 295.09 150.946)"/><use xlink:href="#e" transform="matrix(9.56416 0 0 -9.56416 297.728 150.946)"/><use xlink:href="#d" transform="matrix(9.56416 0 0 -9.56416 302.013 151.147)"/><use xlink:href="#b" transform="matrix(9.56416 0 0 -9.56416 318.211 151.147)"/><use xlink:href="#c" transform="matrix(9.56416 0 0 -9.56416 323.333 150.946)"/><use xlink:href="#f" transform="matrix(9.56416 0 0 -9.56416 325.57 150.946)"/><use xlink:href="#b" transform="matrix(9.56416 0 0 -9.56416 341.772 151.147)"/><use xlink:href="#c" transform="matrix(9.56416 0 0 -9.56416 346.894 150.946)"/><use xlink:href="#f" transform="matrix(9.56416 0 0 -9.56416 349.132 150.946)"/><use xlink:href="#d" transform="matrix(9.56416 0 0 -9.56416 353.819 151.147)"/><use xlink:href="#b" transform="matrix(9.56416 0 0 -9.56416 370.016 151.147)"/><use xlink:href="#c" transform="matrix(9.56416 0 0 -9.56416 375.138 150.946)"/><symbol id="K"><path d="M.143.38C.126.379.122.378.122.369c0-.01.005-.01.023-.01h.046c.085 0 .123-.07.123-.166C.314.062.246.027.197.027.149.027.067.05.038.116.07.111.099.129.099.165A.047.047 0 01.05.214C.026.214 0 .2 0 .162 0 .073.089 0 .2 0c.119 0 .207.091.207.192 0 .092-.074.164-.17.181A.188.188 0 01.38.549C.38.628.298.686.201.686.101.686.027.625.027.552c0-.04.031-.048.046-.048.021 0 .045.015.045.045 0 .032-.024.046-.046.046L.061.594c.038.068.132.068.137.068.033 0 .098-.015.098-.113A.226.226 0 00.264.431C.234.387.2.384.173.383L.143.38z"/></symbol><use xlink:href="#K" transform="matrix(9.56416 0 0 -9.56416 377.3 151.147)"/><use xlink:href="#b" transform="matrix(9.56416 0 0 -9.56416 212.62 144.784)"/><use xlink:href="#f" transform="matrix(9.56416 0 0 -9.56416 203.331 112.305)"/><use xlink:href="#b" transform="matrix(9.56416 0 0 -9.56416 207.941 112.506)"/><use xlink:href="#b" transform="matrix(9.56416 0 0 -9.56416 212.628 112.506)"/><use xlink:href="#g" transform="matrix(9.56416 0 0 -9.56416 203.121 80.026)"/><use xlink:href="#b" transform="matrix(9.56416 0 0 -9.56416 207.941 80.227)"/><use xlink:href="#b" transform="matrix(9.56416 0 0 -9.56416 212.628 80.227)"/><use xlink:href="#h" transform="matrix(9.56416 0 0 -9.56416 203.255 47.948)"/><use xlink:href="#b" transform="matrix(9.56416 0 0 -9.56416 207.941 47.948)"/><use xlink:href="#b" transform="matrix(9.56416 0 0 -9.56416 212.628 47.948)"/><use xlink:href="#i" transform="matrix(9.56416 0 0 -9.56416 203.255 15.669)"/><use xlink:href="#b" transform="matrix(9.56416 0 0 -9.56416 207.941 15.669)"/><use xlink:href="#b" transform="matrix(9.56416 0 0 -9.56416 212.628 15.669)"/><clipPath id="L"><path transform="matrix(.8 0 0 -.8 220.19 141.892)" d="M0 .488h194.272v161.396H0z"/></clipPath><g clip-path="url(#L)" stroke-width=".399" stroke-miterlimit="10" fill="none"><path stroke="#0f0" d="M220.19 141.892H234.404l1.068-.371 1.07-1.267 1.069-2.592 1.069-3.956 1.07-5.012 1.068-5.568 1.07-5.966 1.069-6.1 1.07-6.119 1.069-6.05 1.07-5.64 1.067-5.702 1.07-5.367 1.069-4.96 1.069-4.433 1.07-3.716 1.069-2.839 1.069-1.945 1.069-1.175 1.07-.759 1.069-.576 1.068-.458 1.07-.445 1.07-.424 1.07-.392 1.069-.364 1.069-.352L264.34 59l1.07-.308 1.069-.293 1.068-.285 1.07-.247 1.07-.261 1.068-.229 1.07-.192 1.068-.206 1.07-.165 1.07-.159 1.07-.18 1.069-.302 1.07-.17 1.068.147 1.07-.226 1.068-.071 1.07-.099 1.069-.179 1.068-.166 1.07-.126 1.068-.063 1.07-.19 1.069.354 1.07-.112 1.068-.033 1.07-.222 1.069.008 1.07.078 1.07-.025h1.069l1.069-.057 1.069-.052 1.068-.016 1.07-.006 1.069.073 1.069.092 1.069.087 1.07.09 1.069.131 1.069.21 1.07.209 1.07.253 1.068.338 1.07.353 1.069.414 1.07.483 1.068.53 1.07.618 1.069.67 1.069.764 1.068.849 1.07 1 1.07 79.758" stroke-width=".31920000000000004"/><path stroke="#00f" d="M220.19 141.87h.722l1.562-.748 1.563-4.926 1.562-7.462 1.563-8.91 1.562-9.883 1.563-10.33 1.562-10.391 1.563-10.043 1.564-7.974 1.563-7.475 1.562-.572 1.564.402 1.562.235 1.562-2.794 1.563-2.548 1.562-2.305 1.564-2.079 1.563-1.922 1.561-1.797 1.563-1.651 1.563-1.513 1.563-1.395 1.562-1.31 1.563-1.174 1.563-1.074 1.564-.981 1.562-.917 1.563-.793 1.563-.726 1.562-.666 1.562-.609 1.563-.55 1.563-.53 1.562-.435 1.562-.389 1.564-.367 1.562-.337 1.564-.287 1.562-.263 1.563-.236 1.563-.198 1.562-.195 1.562-.161 1.563-.144 1.563-.127 1.563-.09 1.562-.111 1.564-.055 1.563-.064 1.562-.042 1.562-.03 1.562-.004 1.564-.007 1.562.005 1.564.006 1.561.02 1.564.03 1.563.038 1.561.056 1.563.073 1.563.07 1.563.103 1.561.083 1.563.124 1.563.122 1.563.12 1.563.15 1.564.176 1.561.21 1.563.238 1.562.276 1.563.327 1.563.359 1.562.41 1.562.498 1.564.574 1.562.586 1.563.656 1.564.731 1.563.816 1.562.868 1.563.933 1.563 1.002 1.561 1.105 1.563 1.172 1.563 1.246 1.562 1.334 1.563 1.458 1.562 1.535 1.564 1.666 1.562 1.792 1.563 1.93 1.563 2.103 1.56 2.289 1.58 81.575" stroke-width=".31920000000000004"/></g><use xlink:href="#k" transform="matrix(9.56416 0 0 -9.56416 286.482 163.791)"/><use xlink:href="#l" transform="matrix(9.56416 0 0 -9.56416 290.03 163.791)"/><use xlink:href="#m" transform="matrix(9.56416 0 0 -9.56416 293.77 163.695)"/><use xlink:href="#n" transform="matrix(9.56416 0 0 -9.56416 297.567 163.791)"/><use xlink:href="#o" transform="matrix(9.56416 0 0 -9.56416 302.149 163.695)"/><use xlink:href="#p" transform="matrix(9.56416 0 0 -9.56416 304.74 163.695)"/><path stroke-width=".399" stroke-miterlimit="10" fill="none" stroke="#000" d="M289.22 25.812h85.402V1.238h-85.403z"/><use xlink:href="#v" transform="matrix(7.9701 0 0 -7.9701 298.369 10.854)"/><use xlink:href="#w" transform="matrix(7.9701 0 0 -7.9701 302.577 10.854)"/><use xlink:href="#x" transform="matrix(7.9701 0 0 -7.9701 306.721 10.687)"/><use xlink:href="#w" transform="matrix(7.9701 0 0 -7.9701 311.041 10.854)"/><use xlink:href="#y" transform="matrix(7.9701 0 0 -7.9701 318.15 10.687)"/><use xlink:href="#z" transform="matrix(7.9701 0 0 -7.9701 324.112 10.687)"/><use xlink:href="#z" transform="matrix(7.9701 0 0 -7.9701 330.456 10.687)"/><path stroke-width=".399" stroke-miterlimit="10" fill="none" stroke="#0f0" d="M348.613 8.146h17.008"/><symbol id="M"><path d="M.199.668C.188.682.187.683.167.683H0V.65h.028C.046.65.054.65.074.648.1.645.101.644.101.625V.107c0-.026 0-.074-.101-.074V0c.045.003.092.003.118.003.026 0 .073 0 .118-.003v.033C.135.033.135.081.135.107v.51L.568.015C.577.003.579 0 .589 0c.017 0 .017.01.017.028v.548c0 .026 0 .074.101.074v.033C.662.68.615.68.589.68.563.68.516.68.471.683V.65C.572.65.572.602.572.576V.149L.199.668z"/></symbol><use xlink:href="#w" transform="matrix(7.9701 0 0 -7.9701 298.345 20.32)"/><use xlink:href="#A" transform="matrix(7.9701 0 0 -7.9701 302.983 20.152)"/><use xlink:href="#x" transform="matrix(7.9701 0 0 -7.9701 304.84 20.152)"/><use xlink:href="#C" transform="matrix(7.9701 0 0 -7.9701 309.304 20.598)"/><use xlink:href="#D" transform="matrix(7.9701 0 0 -7.9701 319.179 20.32)"/><use xlink:href="#E" transform="matrix(7.9701 0 0 -7.9701 325.292 20.32)"/><use xlink:href="#M" transform="matrix(7.9701 0 0 -7.9701 329.874 20.152)"/><path stroke-width=".399" stroke-miterlimit="10" fill="none" stroke="#00f" d="M348.613 17.611h17.008"/><symbol id="N"><path d="M.144.388v.317L0 .694V.663C.07.663.078.656.078.607V.011h.025l.036.062A.157.157 0 01.27 0c.119 0 .223.098.223.227 0 .127-.098.226-.212.226A.178.178 0 01.144.388M.147.125v.206c0 .019 0 .02.011.036a.144.144 0 00.118.064C.321.431.357.405.381.367A.269.269 0 00.41.228.268.268 0 00.379.086.137.137 0 00.266.022a.124.124 0 00-.105.061C.147.104.147.107.147.125z"/></symbol><use xlink:href="#H" transform="matrix(10.9091 0 0 -10.9091 280.971 185.006)"/><use xlink:href="#N" transform="matrix(10.9091 0 0 -10.9091 284.44 182.399)"/><use xlink:href="#J" transform="matrix(10.9091 0 0 -10.9091 290.822 185.006)"/><path stroke-width=".1592" stroke-miterlimit="10" fill="none" stroke="#929292" d="M41.365 340.255v-3.402m38.855 3.402v-3.402m38.854 3.402v-3.402m38.855 3.402v-3.402m38.854 3.402v-3.402M41.365 340.255h3.402m-3.402-25.824h3.402m-3.402-25.823h3.402m-3.402-25.823h3.402m-3.402-25.824h3.402m-3.402-25.823h3.402"/><path stroke-width=".31920000000000004" stroke-miterlimit="10" fill="none" stroke="#000" d="M41.365 340.255h155.418M41.365 340.255V211.138"/><use xlink:href="#b" transform="matrix(9.56416 0 0 -9.56416 39.416 349.9)"/><use xlink:href="#b" transform="matrix(9.56416 0 0 -9.56416 72.287 349.9)"/><use xlink:href="#c" transform="matrix(9.56416 0 0 -9.56416 77.41 349.699)"/><use xlink:href="#b" transform="matrix(9.56416 0 0 -9.56416 79.57 349.9)"/><use xlink:href="#d" transform="matrix(9.56416 0 0 -9.56416 84.334 349.9)"/><use xlink:href="#b" transform="matrix(9.56416 0 0 -9.56416 113.482 349.9)"/><use xlink:href="#c" transform="matrix(9.56416 0 0 -9.56416 118.604 349.699)"/><use xlink:href="#e" transform="matrix(9.56416 0 0 -9.56416 121.244 349.699)"/><use xlink:href="#b" transform="matrix(9.56416 0 0 -9.56416 149.995 349.9)"/><use xlink:href="#c" transform="matrix(9.56416 0 0 -9.56416 155.117 349.699)"/><use xlink:href="#e" transform="matrix(9.56416 0 0 -9.56416 157.757 349.699)"/><use xlink:href="#d" transform="matrix(9.56416 0 0 -9.56416 162.042 349.9)"/><use xlink:href="#b" transform="matrix(9.56416 0 0 -9.56416 191.19 349.9)"/><use xlink:href="#c" transform="matrix(9.56416 0 0 -9.56416 196.312 349.699)"/><use xlink:href="#f" transform="matrix(9.56416 0 0 -9.56416 198.55 349.699)"/><use xlink:href="#b" transform="matrix(9.56416 0 0 -9.56416 33.794 343.537)"/><use xlink:href="#f" transform="matrix(9.56416 0 0 -9.56416 24.506 317.513)"/><use xlink:href="#b" transform="matrix(9.56416 0 0 -9.56416 29.116 317.714)"/><use xlink:href="#b" transform="matrix(9.56416 0 0 -9.56416 33.802 317.714)"/><use xlink:href="#g" transform="matrix(9.56416 0 0 -9.56416 24.295 291.69)"/><use xlink:href="#b" transform="matrix(9.56416 0 0 -9.56416 29.116 291.89)"/><use xlink:href="#b" transform="matrix(9.56416 0 0 -9.56416 33.802 291.89)"/><use xlink:href="#h" transform="matrix(9.56416 0 0 -9.56416 24.43 266.068)"/><use xlink:href="#b" transform="matrix(9.56416 0 0 -9.56416 29.116 266.068)"/><use xlink:href="#b" transform="matrix(9.56416 0 0 -9.56416 33.802 266.068)"/><use xlink:href="#i" transform="matrix(9.56416 0 0 -9.56416 24.43 240.245)"/><use xlink:href="#b" transform="matrix(9.56416 0 0 -9.56416 29.116 240.245)"/><use xlink:href="#b" transform="matrix(9.56416 0 0 -9.56416 33.802 240.245)"/><use xlink:href="#e" transform="matrix(9.56416 0 0 -9.56416 17.624 213.29)"/><symbol id="O"><path d="M.108.189C.108.247.089.29.048.29A.047.047 0 010 .242C0 .22.015.193.049.193c.013 0 .024.004.033.013l.004.002C.088.208.088.194.088.189A.239.239 0 00.024.026C.013.014.013.012.013.01A.01.01 0 01.023 0c.008 0 .085.074.085.189z"/></symbol><use xlink:href="#O" transform="matrix(9.56416 0 0 -9.56416 22.268 215.137)"/><use xlink:href="#b" transform="matrix(9.56416 0 0 -9.56416 24.43 213.492)"/><use xlink:href="#b" transform="matrix(9.56416 0 0 -9.56416 29.116 213.492)"/><use xlink:href="#b" transform="matrix(9.56416 0 0 -9.56416 33.802 213.492)"/><clipPath id="P"><path transform="matrix(.8 0 0 -.8 41.365 340.567)" d="M0 .39h194.272v161.396H0z"/></clipPath><g clip-path="url(#P)" stroke-width=".399" stroke-miterlimit="10" fill="none"><path stroke="red" d="M41.365 340.567v-.002h0l.054-.002 1.32-.002 1.432-.003 1.433-.001h1.433l1.433-.001 1.433-.001 1.433-.006 1.433.009h4.299l1.433-.007 1.433.002h1.433l1.433-.002 1.433-.001 1.433-.014 1.433-.033 1.433-.181 1.432-1.312 1.433-2.688 1.433-3.655 1.433-4.22 1.432-4.714 1.433-5.067 1.433-5.245 1.433-5.29 1.433-5.374 1.432-5.282 1.433-5.332 1.433-5.26 1.433-5.113 1.433-4.947 1.432-4.814 1.433-4.612 1.433-4.31 1.433-3.933 1.432-3.462 1.434-2.57 1.433-1.516 1.434-.576 1.432-.16 1.433-.027 1.434-.02 1.433-.016 1.433-.067 1.432-.066 1.434-.069 1.433-.064 1.433-.065 1.432-.022 1.433-.019 1.433-.008 1.434.02 1.432.024 1.432.048 1.433.063 1.433.078 1.434.095 1.433.12 1.432.168 1.432.163 1.433.21 1.433.269 1.433.298 1.433.388 1.432.427 1.433.475 1.434.527 1.433.587 1.434.604 1.433.64 1.431.668 1.433.683 1.433.688 1.433.717 1.432.724 1.434.742 1.432.757 1.433.771 1.435.816 1.433.8 1.433.82 1.433.836 1.433.894 1.433.904 1.433.916 1.433.946 1.432.98 1.432 1.011 1.433 1.077 1.433 1.123 1.433 1.211L176 340.486" stroke-width=".31920000000000004"/><path stroke="#000" d="M41.365 340.561v-.002l.001-.001.453-.002h1.314l1.334-.02 1.333-.019 1.333-.176 1.333-1.16 1.333-1.976 1.332-2.5 1.333-3.067 1.333-3.568 1.333-3.963 1.333-4.14 1.333-4.376 1.333-4.493 1.333-4.545 1.333-4.633 1.333-4.659 1.334-4.655 1.333-4.643 1.333-4.599 1.333-4.544 1.333-4.44 1.333-4.434 1.334-4.318 1.333-4.148 1.334-4.02 1.333-3.884 1.333-3.669 1.333-3.49 1.333-3.303 1.333-3.102 1.332-2.82 1.335-2.597 1.334-2.373 1.332-2.076 1.332-1.756 1.335-1.503 1.332-1.21 1.333-.98 1.333-.746 1.334-.567 1.333-.4 1.333-.265 1.333-.187 1.333-.105 1.333-.036 1.332.022 1.335.04 1.334.084 1.334.11 1.332.126 1.333.135 1.334.179 1.333.204 1.334.207 1.333.27 1.332.29 1.333.302 1.334.355 1.332.38 1.333.398 1.333.436 1.334.448 1.333.477 1.333.47 1.333.502 1.333.52 1.334.533 1.332.557 1.333.572 1.333.584 1.334.589 1.334.624 1.332.647 1.333.652 1.334.668 1.333.68 1.332.714 1.333.738 1.334.768 1.333.783 1.331.806 1.335.821 1.333.866 1.333.871 1.334.935 1.333.927 1.331.98 1.333 1.026 1.332 1.074 1.334 1.123 1.333 1.173 1.333 1.45 1.337 90.957" stroke-width=".31920000000000004"/></g><use xlink:href="#k" transform="matrix(9.56416 0 0 -9.56416 107.657 362.544)"/><use xlink:href="#l" transform="matrix(9.56416 0 0 -9.56416 111.205 362.544)"/><use xlink:href="#m" transform="matrix(9.56416 0 0 -9.56416 114.945 362.448)"/><use xlink:href="#n" transform="matrix(9.56416 0 0 -9.56416 118.742 362.544)"/><use xlink:href="#o" transform="matrix(9.56416 0 0 -9.56416 123.323 362.448)"/><use xlink:href="#p" transform="matrix(9.56416 0 0 -9.56416 125.915 362.448)"/><use xlink:href="#k" transform="matrix(0 -9.56416 -9.56416 0 8.056 300.494)"/><use xlink:href="#l" transform="matrix(0 -9.56416 -9.56416 0 8.056 296.946)"/><use xlink:href="#m" transform="matrix(0 -9.56416 -9.56416 0 7.96 293.207)"/><use xlink:href="#q" transform="matrix(0 -9.56416 -9.56416 0 8.056 289.543)"/><use xlink:href="#k" transform="matrix(0 -9.56416 -9.56416 0 8.056 285.354)"/><use xlink:href="#k" transform="matrix(0 -9.56416 -9.56416 0 8.056 281.663)"/><use xlink:href="#r" transform="matrix(0 -9.56416 -9.56416 0 10.351 274.06)"/><use xlink:href="#s" transform="matrix(0 -9.56416 -9.56416 0 7.96 272.146)"/><use xlink:href="#t" transform="matrix(0 -9.56416 -9.56416 0 7.96 263.586)"/><use xlink:href="#n" transform="matrix(0 -9.56416 -9.56416 0 8.056 257.456)"/><use xlink:href="#u" transform="matrix(0 -9.56416 -9.56416 0 10.351 252.99)"/><path stroke-width=".399" stroke-miterlimit="10" fill="none" stroke="#000" d="M107.449 224.564h91.291V199.99H107.45z"/><use xlink:href="#w" transform="matrix(7.9701 0 0 -7.9701 116.575 209.606)"/><use xlink:href="#A" transform="matrix(7.9701 0 0 -7.9701 121.213 209.439)"/><use xlink:href="#B" transform="matrix(7.9701 0 0 -7.9701 123.596 209.439)"/><use xlink:href="#C" transform="matrix(7.9701 0 0 -7.9701 127.534 209.885)"/><use xlink:href="#D" transform="matrix(7.9701 0 0 -7.9701 137.409 209.606)"/><use xlink:href="#E" transform="matrix(7.9701 0 0 -7.9701 143.522 209.606)"/><use xlink:href="#F" transform="matrix(7.9701 0 0 -7.9701 148.04 209.439)"/><use xlink:href="#G" transform="matrix(7.9701 0 0 -7.9701 154.465 209.439)"/><path stroke-width=".399" stroke-miterlimit="10" fill="none" stroke="red" d="M172.732 206.898h17.008"/><use xlink:href="#w" transform="matrix(7.9701 0 0 -7.9701 116.575 219.071)"/><use xlink:href="#A" transform="matrix(7.9701 0 0 -7.9701 121.213 218.904)"/><use xlink:href="#x" transform="matrix(7.9701 0 0 -7.9701 123.07 218.904)"/><use xlink:href="#C" transform="matrix(7.9701 0 0 -7.9701 127.534 219.35)"/><use xlink:href="#D" transform="matrix(7.9701 0 0 -7.9701 137.409 219.071)"/><use xlink:href="#E" transform="matrix(7.9701 0 0 -7.9701 143.522 219.071)"/><use xlink:href="#F" transform="matrix(7.9701 0 0 -7.9701 148.04 218.904)"/><use xlink:href="#G" transform="matrix(7.9701 0 0 -7.9701 154.465 218.904)"/><path stroke-width=".399" stroke-miterlimit="10" fill="none" stroke="#000" d="M172.732 216.363h17.008"/><symbol id="Q"><path d="M.083.229c0 .163.082.205.135.205C.227.434.29.433.325.397.284.394.278.364.278.351c0-.026.018-.046.046-.046C.35.305.37.322.37.352.37.42.294.459.217.459.092.459 0 .351 0 .227 0 .099.099 0 .215 0c.134 0 .166.12.166.13 0 .01-.01.01-.013.01C.359.14.357.136.355.13.326.037.261.025.224.025.171.025.083.068.083.229z"/></symbol><use xlink:href="#H" transform="matrix(10.9091 0 0 -10.9091 79.501 383.758)"/><use xlink:href="#Q" transform="matrix(10.9091 0 0 -10.9091 83.036 381.151)"/><use xlink:href="#J" transform="matrix(10.9091 0 0 -10.9091 88.13 383.758)"/><path stroke-width=".1592" stroke-miterlimit="10" fill="none" stroke="#929292" d="M227.475 340.752v-3.402m25.903 3.402v-3.402m25.903 3.402v-3.402m25.903 3.402v-3.402m25.903 3.402v-3.402m25.903 3.402v-3.402m25.903 3.402v-3.402M227.475 340.752h3.401m-3.401-25.824h3.401m-3.401-25.823h3.401m-3.401-25.823h3.401m-3.401-25.824h3.401m-3.401-25.823h3.401"/><path stroke-width=".31920000000000004" stroke-miterlimit="10" fill="none" stroke="#000" d="M227.475 340.752h155.418M227.475 340.752V211.635"/><use xlink:href="#b" transform="matrix(9.56416 0 0 -9.56416 225.525 350.397)"/><use xlink:href="#b" transform="matrix(9.56416 0 0 -9.56416 245.445 350.397)"/><use xlink:href="#c" transform="matrix(9.56416 0 0 -9.56416 250.568 350.196)"/><use xlink:href="#b" transform="matrix(9.56416 0 0 -9.56416 252.73 350.397)"/><use xlink:href="#d" transform="matrix(9.56416 0 0 -9.56416 257.492 350.397)"/><use xlink:href="#b" transform="matrix(9.56416 0 0 -9.56416 273.69 350.397)"/><use xlink:href="#c" transform="matrix(9.56416 0 0 -9.56416 278.812 350.196)"/><use xlink:href="#e" transform="matrix(9.56416 0 0 -9.56416 281.45 350.196)"/><use xlink:href="#b" transform="matrix(9.56416 0 0 -9.56416 297.25 350.397)"/><use xlink:href="#c" transform="matrix(9.56416 0 0 -9.56416 302.373 350.196)"/><use xlink:href="#e" transform="matrix(9.56416 0 0 -9.56416 305.012 350.196)"/><use xlink:href="#d" transform="matrix(9.56416 0 0 -9.56416 309.297 350.397)"/><use xlink:href="#b" transform="matrix(9.56416 0 0 -9.56416 325.494 350.397)"/><use xlink:href="#c" transform="matrix(9.56416 0 0 -9.56416 330.616 350.196)"/><use xlink:href="#f" transform="matrix(9.56416 0 0 -9.56416 332.855 350.196)"/><use xlink:href="#b" transform="matrix(9.56416 0 0 -9.56416 349.056 350.397)"/><use xlink:href="#c" transform="matrix(9.56416 0 0 -9.56416 354.178 350.196)"/><use xlink:href="#f" transform="matrix(9.56416 0 0 -9.56416 356.416 350.196)"/><use xlink:href="#d" transform="matrix(9.56416 0 0 -9.56416 361.103 350.397)"/><use xlink:href="#b" transform="matrix(9.56416 0 0 -9.56416 377.3 350.397)"/><use xlink:href="#c" transform="matrix(9.56416 0 0 -9.56416 382.422 350.196)"/><use xlink:href="#K" transform="matrix(9.56416 0 0 -9.56416 384.583 350.397)"/><use xlink:href="#b" transform="matrix(9.56416 0 0 -9.56416 219.904 344.034)"/><use xlink:href="#f" transform="matrix(9.56416 0 0 -9.56416 210.615 318.01)"/><use xlink:href="#b" transform="matrix(9.56416 0 0 -9.56416 215.225 318.211)"/><use xlink:href="#b" transform="matrix(9.56416 0 0 -9.56416 219.912 318.211)"/><use xlink:href="#g" transform="matrix(9.56416 0 0 -9.56416 210.405 292.188)"/><use xlink:href="#b" transform="matrix(9.56416 0 0 -9.56416 215.225 292.389)"/><use xlink:href="#b" transform="matrix(9.56416 0 0 -9.56416 219.912 292.389)"/><use xlink:href="#h" transform="matrix(9.56416 0 0 -9.56416 210.539 266.565)"/><use xlink:href="#b" transform="matrix(9.56416 0 0 -9.56416 215.225 266.565)"/><use xlink:href="#b" transform="matrix(9.56416 0 0 -9.56416 219.912 266.565)"/><use xlink:href="#i" transform="matrix(9.56416 0 0 -9.56416 210.539 240.742)"/><use xlink:href="#b" transform="matrix(9.56416 0 0 -9.56416 215.225 240.742)"/><use xlink:href="#b" transform="matrix(9.56416 0 0 -9.56416 219.912 240.742)"/><use xlink:href="#e" transform="matrix(9.56416 0 0 -9.56416 203.733 213.789)"/><use xlink:href="#O" transform="matrix(9.56416 0 0 -9.56416 208.377 215.634)"/><use xlink:href="#b" transform="matrix(9.56416 0 0 -9.56416 210.539 213.99)"/><use xlink:href="#b" transform="matrix(9.56416 0 0 -9.56416 215.225 213.99)"/><use xlink:href="#b" transform="matrix(9.56416 0 0 -9.56416 219.912 213.99)"/><clipPath id="R"><path transform="matrix(.8 0 0 -.8 227.475 341.058)" d="M0 .383h194.272v161.396H0z"/></clipPath><g clip-path="url(#R)" stroke-width=".399" stroke-miterlimit="10" fill="none"><path stroke="#00f" d="M227.475 341.047h.721l1.562-.599 1.563-3.94 1.562-5.97 1.563-7.128 1.562-7.907 1.563-8.263 1.562-8.314 1.563-8.034 1.564-6.38 1.563-5.98 1.562-.456 1.564.32 1.562.189 1.562-2.236 1.563-2.038 1.562-1.844 1.564-1.663 1.563-1.538 1.561-1.437 1.563-1.321 1.563-1.21 1.563-1.116 1.562-1.049 1.563-.939 1.563-.859 1.564-.785 1.562-.733 1.563-.634 1.563-.581 1.562-.533 1.562-.487 1.563-.44 1.563-.425 1.562-.348 1.562-.31 1.564-.295 1.562-.268 1.564-.23 1.562-.21 1.563-.19 1.563-.158 1.562-.156 1.562-.129 1.563-.115 1.563-.101 1.563-.073 1.562-.088 1.564-.045 1.563-.05 1.562-.034 1.562-.024 1.562-.004 1.564-.005 1.562.004 1.564.005 1.561.016 1.564.023 1.563.031 1.561.045 1.563.058 1.563.056 1.563.083 1.561.066 1.563.1 1.563.097 1.563.095 1.563.12 1.564.142 1.561.168 1.563.19 1.562.221 1.563.261 1.563.288 1.562.328 1.562.398 1.564.46 1.562.468 1.563.525 1.564.585 1.563.652 1.562.695 1.563.746 1.563.802 1.561.884 1.563.937 1.563.997 1.562 1.068 1.563 1.166 1.562 1.228 1.564 1.332 1.562 1.434 1.563 1.544 1.563 1.683 1.56 1.83 1.58 65.26" stroke-width=".31920000000000004"/><path stroke="#000" d="M227.475 341.058v-.003l.302-.002h.876l.89-.02.888-.019.889-.176.888-1.16.889-1.976.889-2.5.888-3.067.889-3.568.888-3.963.89-4.14.888-4.376.889-4.492.888-4.546.889-4.633.889-4.659.889-4.655.888-4.642.89-4.6.888-4.544.888-4.44.889-4.434.89-4.318.888-4.148.89-4.02.888-3.884.888-3.669.89-3.49.888-3.303.889-3.102.888-2.82.89-2.597.889-2.373.888-2.076.888-1.756.89-1.503.888-1.21.889-.98.888-.746.89-.567.888-.4.889-.265.888-.187.89-.105.888-.036.888.022.89.04.89.084.889.11.888.126.889.135.889.179.888.204.89.207.888.27.888.29.889.302.889.355.889.38.888.398.889.436.889.449.889.477.888.47.889.501.888.52.89.533.888.557.888.572.89.584.889.589.889.624.888.647.888.652.89.668.888.68.889.714.889.738.889.768.888.784.888.805.89.821.888.866.89.871.888.935.89.927.886.98.89 1.026.887 1.074.889 1.124.889 1.172.889 1.45.89 90.957" stroke-width=".31920000000000004"/></g><use xlink:href="#k" transform="matrix(9.56416 0 0 -9.56416 293.766 363.041)"/><use xlink:href="#l" transform="matrix(9.56416 0 0 -9.56416 297.315 363.041)"/><use xlink:href="#m" transform="matrix(9.56416 0 0 -9.56416 301.054 362.945)"/><use xlink:href="#n" transform="matrix(9.56416 0 0 -9.56416 304.851 363.041)"/><use xlink:href="#o" transform="matrix(9.56416 0 0 -9.56416 309.433 362.945)"/><use xlink:href="#p" transform="matrix(9.56416 0 0 -9.56416 312.024 362.945)"/><path stroke-width=".399" stroke-miterlimit="10" fill="none" stroke="#000" d="M293.559 225.062h91.291v-24.574H293.56z"/><use xlink:href="#w" transform="matrix(7.9701 0 0 -7.9701 302.685 210.104)"/><use xlink:href="#A" transform="matrix(7.9701 0 0 -7.9701 307.323 209.937)"/><use xlink:href="#x" transform="matrix(7.9701 0 0 -7.9701 309.18 209.937)"/><use xlink:href="#C" transform="matrix(7.9701 0 0 -7.9701 313.644 210.383)"/><use xlink:href="#D" transform="matrix(7.9701 0 0 -7.9701 323.519 210.104)"/><use xlink:href="#E" transform="matrix(7.9701 0 0 -7.9701 329.632 210.104)"/><use xlink:href="#M" transform="matrix(7.9701 0 0 -7.9701 334.214 209.937)"/><path stroke-width=".399" stroke-miterlimit="10" fill="none" stroke="#00f" d="M358.841 207.396h17.008"/><use xlink:href="#w" transform="matrix(7.9701 0 0 -7.9701 302.685 219.57)"/><use xlink:href="#A" transform="matrix(7.9701 0 0 -7.9701 307.323 219.402)"/><use xlink:href="#x" transform="matrix(7.9701 0 0 -7.9701 309.18 219.402)"/><use xlink:href="#C" transform="matrix(7.9701 0 0 -7.9701 313.644 219.848)"/><use xlink:href="#D" transform="matrix(7.9701 0 0 -7.9701 323.519 219.57)"/><use xlink:href="#E" transform="matrix(7.9701 0 0 -7.9701 329.632 219.57)"/><use xlink:href="#F" transform="matrix(7.9701 0 0 -7.9701 334.15 219.402)"/><use xlink:href="#G" transform="matrix(7.9701 0 0 -7.9701 340.575 219.402)"/><path stroke-width=".399" stroke-miterlimit="10" fill="none" stroke="#000" d="M358.841 216.862h17.008"/><symbol id="S"><path d="M.346.066V0l.147.011v.031c-.07 0-.078.007-.078.056v.607L.271.694V.663c.07 0 .078-.007.078-.056V.391a.16.16 0 01-.126.062A.226.226 0 010 .226C0 .099.098 0 .212 0c.064 0 .109.034.134.066m0 .268V.129c0-.018 0-.02-.011-.037a.14.14 0 00-.118-.07C.172.022.136.048.112.086a.269.269 0 00-.029.139c0 .037.002.097.031.142a.137.137 0 00.113.064.13.13 0 00.108-.06C.346.354.346.352.346.334z"/></symbol><use xlink:href="#H" transform="matrix(10.9091 0 0 -10.9091 280.971 384.256)"/><use xlink:href="#S" transform="matrix(10.9091 0 0 -10.9091 284.506 381.649)"/><use xlink:href="#J" transform="matrix(10.9091 0 0 -10.9091 290.822 384.256)"/><symbol id="T"><path d="M.53.681H0V.652h.02c.072 0 .075-.01.075-.047V.076C.095.039.092.029.02.029H0V0c.024.002.113.002.143.002.035 0 .123 0 .152-.002v.029h-.03C.178.029.176.041.176.077v.249h.088C.358.326.368.293.368.209H.39v.263H.368C.368.388.358.355.264.355H.176v.257c0 .033.002.04.046.04h.125C.491.652.52.599.534.458h.022L.53.681z"/></symbol><symbol id="U"><path d="M.092.386C.139.355.179.355.19.355.28.355.347.423.347.5a.136.136 0 01-.04.097c.039.04.086.04.091.04.004 0 .009 0 .013-.002C.401.631.396.621.396.61c0-.014.01-.026.026-.026.008 0 .026.005.026.027a.047.047 0 01-.049.046A.152.152 0 01.294.61a.168.168 0 01-.103.036C.101.646.034.578.034.501c0-.057.035-.094.045-.103a.134.134 0 01-.03-.083c0-.058.035-.083.043-.088C.046.214 0 .178 0 .126 0 .057.094 0 .217 0c.119 0 .218.053.218.128a.126.126 0 01-.067.115C.317.269.267.269.181.269c-.061 0-.068 0-.086.019a.074.074 0 00-.019.05c0 .017.006.034.016.048m.099-.01C.103.376.103.477.103.5c0 .018 0 .059.017.086a.085.085 0 00.07.039C.278.625.278.524.278.501c0-.018 0-.059-.017-.086a.085.085 0 00-.07-.039M.218.021C.122.021.049.07.049.127A.09.09 0 00.089.2C.111.214.12.214.19.214c.083 0 .196 0 .196-.087C.386.068.31.021.218.021z"/></symbol><symbol id="V"><path d="M.272.44V.411C.34.411.348.404.348.355V.176C.348.091.303.02.228.02.146.02.141.067.141.12v.331L0 .44V.411C.076.411.076.408.076.319v-.15c0-.062 0-.098.03-.131C.13.012.171 0 .222 0c.017 0 .049 0 .083.029A.175.175 0 01.35.09V0l.139.01v.029C.421.039.413.046.413.095v.356L.272.44z"/></symbol><symbol id="W"><path d="M.097.383a.049.049 0 01-.048.048A.048.048 0 010 .383a.048.048 0 11.097 0m0-.334a.049.049 0 01-.048.048A.048.048 0 010 .049a.048.048 0 11.097 0z"/></symbol><symbol id="X"><path d="M.598.702c0 .018 0 .023-.01.023C.582.725.581.723.575.713L.526.634a.24.24 0 01-.185.091A.353.353 0 010 .363C0 .156.16 0 .341 0a.26.26 0 01.257.253c0 .011 0 .017-.011.017C.577.27.576.265.576.258.567.099.451.029.354.029c-.07 0-.261.042-.261.334 0 .289.188.333.26.333C.458.696.55.607.57.457.572.445.572.442.584.442c.014 0 .014.003.014.023v.237z"/></symbol><symbol id="Y"><path d="M.429.224c0 .129-.098.232-.214.232C.095.456 0 .35 0 .224 0 .096.1 0 .214 0c.118 0 .215.098.215.224M.215.022a.127.127 0 00-.111.065.288.288 0 00-.028.146c0 .038 0 .099.031.144a.128.128 0 00.215.002C.353.333.353.27.353.233c0-.035 0-.097-.026-.144A.13.13 0 00.215.022z"/></symbol><symbol id="Z"><path d="M.685.243c0 .093 0 .121-.023.153C.633.435.586.441.552.441A.151.151 0 01.411.342C.397.419.343.441.28.441.183.441.145.358.137.338H.136v.103L0 .43V.401C.068.401.076.394.076.345V.074C.076.029.065.029 0 .029V0c.026.002.08.002.108.002.029 0 .083 0 .109-.002v.029c-.064 0-.076 0-.076.045V.26c0 .105.069.161.131.161S.348.37.348.309V.074C.348.029.337.029.272.029V0c.026.002.08.002.108.002.029 0 .083 0 .109-.002v.029c-.064 0-.076 0-.076.045V.26c0 .105.069.161.131.161S.62.37.62.309V.074C.62.029.609.029.544.029V0c.026.002.08.002.108.002.029 0 .083 0 .109-.002v.029c-.05 0-.075 0-.076.03v.184z"/></symbol><symbol id="aa"><path d="M.217.029c-.064 0-.076 0-.076.045v.174A.152.152 0 01.264.184C.379.184.48.281.48.41.48.537.386.635.277.635.189.635.142.572.139.568v.067L0 .624V.595C.07.595.076.588.076.544v-.47C.076.029.065.029 0 .029V0c.026.002.08.002.108.002.029 0 .083 0 .109-.002v.029M.141.513c0 .019 0 .02.011.036.03.045.079.064.117.064C.344.613.404.522.404.41.404.291.336.204.259.204a.118.118 0 00-.08.032C.156.259.141.279.141.307v.206z"/></symbol><symbol id="ab"><path d="M.141.402h.113v.029H.139v.117c0 .09.046.136.087.136A.087.087 0 00.261.676.04.04 0 01.232.637c0-.023.016-.039.039-.039.024 0 .04.016.04.04 0 .037-.036.066-.084.066A.15.15 0 01.078.548V.431H0V.402h.078V.074C.078.029.067.029.002.029V0C.03.002.085.002.115.002.142.002.213.002.236 0v.029h-.02C.143.029.141.04.141.076v.326z"/></symbol><symbol id="ac"><path d="M.587.346C.609.409.653.411.67.412v.029C.645.439.627.439.596.439L.511.441V.412C.556.41.568.383.568.364c0-.001 0-.008-.004-.018L.472.084l-.1.283C.367.379.367.381.367.384c0 .028.037.028.058.028v.029C.397.439.356.439.327.439l-.09.002V.412C.275.412.288.41.299.397A.385.385 0 00.323.338L.238.094.142.366C.137.379.137.381.137.385c0 .027.039.027.058.027v.029C.17.439.12.439.093.439L0 .441V.412C.051.412.061.408.072.376L.198.018C.202.007.205 0 .216 0 .225 0 .23.003.235.019l.1.285.1-.285C.44.003.445 0 .454 0c.011 0 .014.007.018.018l.115.328z"/></symbol><symbol id="ad"><path d="M.327.38C.315.38.278.38.278.339A.04.04 0 01.319.298c.023 0 .042.014.042.043 0 .067-.07.115-.151.115C.093.456 0 .352 0 .226 0 .098.096 0 .209 0c.132 0 .162.12.162.129 0 .009-.007.009-.01.009C.352.138.351.135.348.123.326.052.272.022.218.022.157.022.076.075.076.227c0 .166.085.207.135.207C.249.434.304.419.327.38z"/></symbol><symbol id="ae"><path d="M.089.213C.09.206.091.201.091.188c0-.014 0-.095-.069-.164C.013.015.013.013.013.01A.01.01 0 01.023 0c.009 0 .088.074.088.188C.111.25.088.29.048.29A.047.047 0 010 .242C0 .215.019.193.049.193c.027 0 .04.019.04.02z"/></symbol><symbol id="af"><path d="M.26 0v.054H0V0h.26z"/></symbol><symbol id="ag"><path d="M.39.346c.009.022.026.065.09.066v.029C.451.439.437.439.406.439L.324.441V.412C.366.41.371.38.371.369A.06.06 0 00.364.343L.262.085.15.367C.145.381.144.381.144.386c0 .026.038.026.056.026v.029C.175.439.123.439.096.439L0 .441V.412C.056.412.066.408.078.377L.221.019C.226.005.228 0 .24 0c.007 0 .013.002.02.019l.13.327z"/></symbol><use xlink:href="#T" transform="matrix(11.9552 0 0 -11.9552 32.96 405.668)"/><use xlink:href="#o" transform="matrix(11.9552 0 0 -11.9552 40.504 405.668)"/><use xlink:href="#U" transform="matrix(11.9552 0 0 -11.9552 43.684 408.119)"/><use xlink:href="#V" transform="matrix(11.9552 0 0 -11.9552 49.602 405.788)"/><use xlink:href="#m" transform="matrix(11.9552 0 0 -11.9552 56.058 405.668)"/><use xlink:href="#q" transform="matrix(11.9552 0 0 -11.9552 60.636 405.788)"/><use xlink:href="#e" transform="matrix(11.9552 0 0 -11.9552 70.464 405.668)"/><use xlink:href="#W" transform="matrix(11.9552 0 0 -11.9552 76.274 405.668)"/><use xlink:href="#X" transform="matrix(11.9552 0 0 -11.9552 84.332 405.92)"/><use xlink:href="#Y" transform="matrix(11.9552 0 0 -11.9552 92.497 405.788)"/><use xlink:href="#Z" transform="matrix(11.9552 0 0 -11.9552 98.379 405.668)"/><use xlink:href="#aa" transform="matrix(11.9552 0 0 -11.9552 108.087 407.987)"/><use xlink:href="#n" transform="matrix(11.9552 0 0 -11.9552 114.782 405.788)"/><use xlink:href="#m" transform="matrix(11.9552 0 0 -11.9552 120.448 405.668)"/><use xlink:href="#o" transform="matrix(11.9552 0 0 -11.9552 125.063 405.668)"/><use xlink:href="#k" transform="matrix(11.9552 0 0 -11.9552 128.315 405.788)"/><use xlink:href="#Y" transform="matrix(11.9552 0 0 -11.9552 132.894 405.788)"/><use xlink:href="#p" transform="matrix(11.9552 0 0 -11.9552 138.776 405.668)"/><use xlink:href="#Y" transform="matrix(11.9552 0 0 -11.9552 149.165 405.788)"/><use xlink:href="#ab" transform="matrix(11.9552 0 0 -11.9552 155.035 405.668)"/><use xlink:href="#l" transform="matrix(11.9552 0 0 -11.9552 162.351 405.788)"/><use xlink:href="#ac" transform="matrix(11.9552 0 0 -11.9552 166.584 405.788)"/><use xlink:href="#Y" transform="matrix(11.9552 0 0 -11.9552 174.845 405.788)"/><use xlink:href="#k" transform="matrix(11.9552 0 0 -11.9552 184.648 405.788)"/><use xlink:href="#aa" transform="matrix(11.9552 0 0 -11.9552 189.203 407.987)"/><use xlink:href="#q" transform="matrix(11.9552 0 0 -11.9552 196.053 405.788)"/><use xlink:href="#ad" transform="matrix(11.9552 0 0 -11.9552 201.313 405.788)"/><use xlink:href="#o" transform="matrix(11.9552 0 0 -11.9552 206.49 405.668)"/><use xlink:href="#Z" transform="matrix(11.9552 0 0 -11.9552 209.73 405.668)"/><use xlink:href="#q" transform="matrix(11.9552 0 0 -11.9552 219.461 405.788)"/><use xlink:href="#p" transform="matrix(11.9552 0 0 -11.9552 224.686 405.668)"/><use xlink:href="#ae" transform="matrix(11.9552 0 0 -11.9552 231.847 400.838)"/><use xlink:href="#k" transform="matrix(11.9552 0 0 -11.9552 234.453 405.788)"/><use xlink:href="#k" transform="matrix(11.9552 0 0 -11.9552 242.965 405.788)"/><use xlink:href="#l" transform="matrix(11.9552 0 0 -11.9552 247.4 405.788)"/><use xlink:href="#m" transform="matrix(11.9552 0 0 -11.9552 252.075 405.668)"/><use xlink:href="#q" transform="matrix(11.9552 0 0 -11.9552 256.654 405.788)"/><use xlink:href="#k" transform="matrix(11.9552 0 0 -11.9552 261.89 405.788)"/><use xlink:href="#k" transform="matrix(11.9552 0 0 -11.9552 266.505 405.788)"/><use xlink:href="#af" transform="matrix(11.9552 0 0 -11.9552 270.857 403.409)"/><use xlink:href="#k" transform="matrix(11.9552 0 0 -11.9552 275.017 405.788)"/><use xlink:href="#l" transform="matrix(11.9552 0 0 -11.9552 279.453 405.788)"/><use xlink:href="#m" transform="matrix(11.9552 0 0 -11.9552 284.127 405.668)"/><use xlink:href="#n" transform="matrix(11.9552 0 0 -11.9552 288.873 405.788)"/><use xlink:href="#o" transform="matrix(11.9552 0 0 -11.9552 294.6 405.668)"/><use xlink:href="#p" transform="matrix(11.9552 0 0 -11.9552 297.84 405.668)"/><use xlink:href="#ad" transform="matrix(11.9552 0 0 -11.9552 308.288 405.788)"/><use xlink:href="#V" transform="matrix(11.9552 0 0 -11.9552 313.453 405.788)"/><use xlink:href="#m" transform="matrix(11.9552 0 0 -11.9552 319.909 405.668)"/><use xlink:href="#ag" transform="matrix(11.9552 0 0 -11.9552 324.344 405.788)"/><use xlink:href="#q" transform="matrix(11.9552 0 0 -11.9552 330.334 405.788)"/><use xlink:href="#k" transform="matrix(11.9552 0 0 -11.9552 335.57 405.788)"/></g></svg>